<svg width="256" height="256" viewBox="0 0 256 256" fill="none" xmlns="http://www.w3.org/2000/svg">
<g clip-path="url(#clip0_741_7)">
<path d="M128 191.973C163.346 191.973 192 163.319 192 127.973C192 92.6264 163.346 63.9727 128 63.9727C92.6538 63.9727 64 92.6264 64 127.973C64 163.319 92.6538 191.973 128 191.973Z" fill="white"/>
<path d="M128.001 64.0002H238.834C227.603 44.5409 211.447 28.3816 191.99 17.1469C172.533 5.91229 150.46 -0.00156731 127.993 3.11572e-07C105.525 0.00156793 83.4537 5.9185 63.9981 17.1559C44.5425 28.3932 28.3884 44.5548 17.1602 64.0157L72.5767 160L72.6263 159.987C66.989 150.266 64.014 139.231 64.0014 127.993C63.9888 116.756 66.9389 105.713 72.5543 95.9794C78.1698 86.2456 86.2522 78.1641 95.9866 72.5497C105.721 66.9353 116.764 63.9864 128.001 64.0002Z" fill="url(#paint0_linear_741_7)"/>
<path d="M127.999 178.667C155.981 178.667 178.665 155.983 178.665 128.001C178.665 100.018 155.981 77.334 127.999 77.334C100.016 77.334 77.332 100.018 77.332 128.001C77.332 155.983 100.016 178.667 127.999 178.667Z" fill="#1A73E8"/>
<path d="M183.42 160.015L128.003 255.999C150.471 256.002 172.543 250.09 192.001 238.857C211.459 227.623 227.617 211.465 238.849 192.007C250.082 172.549 255.993 150.476 255.989 128.008C255.985 105.541 250.066 83.47 238.826 64.0156H127.994L127.98 64.0652C139.218 64.0435 150.263 66.9848 160.001 72.5926C169.739 78.2003 177.827 86.2763 183.449 96.0065C189.071 105.737 192.029 116.777 192.024 128.014C192.019 139.252 189.051 150.29 183.42 160.015Z" fill="url(#paint1_linear_741_7)"/>
<path d="M72.578 160.016L17.1615 64.0312C5.92484 83.4872 0.00864989 105.559 0.00781259 128.026C0.00697528 150.494 5.92152 172.566 17.1567 192.023C28.392 211.48 44.5518 227.636 64.0114 238.866C83.471 250.097 105.544 256.006 128.012 255.999L183.429 160.015L183.393 159.978C177.793 169.721 169.723 177.815 159.997 183.445C150.272 189.075 139.234 192.041 127.996 192.045C116.759 192.049 105.719 189.09 95.9894 183.467C86.2599 177.843 78.1848 169.755 72.578 160.016Z" fill="url(#paint2_linear_741_7)"/>
</g>
<defs>
<linearGradient id="paint0_linear_741_7" x1="17.1602" y1="80.0002" x2="238.834" y2="80.0002" gradientUnits="userSpaceOnUse">
<stop stop-color="#D93025"/>
<stop offset="1" stop-color="#EA4335"/>
</linearGradient>
<linearGradient id="paint1_linear_741_7" x1="110.516" y1="254.288" x2="221.354" y2="62.3122" gradientUnits="userSpaceOnUse">
<stop stop-color="#FCC934"/>
<stop offset="1" stop-color="#FBBC04"/>
</linearGradient>
<linearGradient id="paint2_linear_741_7" x1="141.855" y1="248.007" x2="31.018" y2="56.0313" gradientUnits="userSpaceOnUse">
<stop stop-color="#1E8E3E"/>
<stop offset="1" stop-color="#34A853"/>
</linearGradient>
<clipPath id="clip0_741_7">
<rect width="256" height="256" fill="white"/>
</clipPath>
</defs>
</svg>
