<svg width="256" height="256" viewBox="0 0 256 256" fill="none" xmlns="http://www.w3.org/2000/svg">
<path d="M244.604 86.646C239.135 73.9085 228.043 60.1555 219.358 55.808C225.551 67.4199 229.851 79.8903 232.102 92.7759L232.125 92.9803C217.896 58.6529 193.777 44.79 174.067 14.6435C173.071 13.1189 172.074 11.5912 171.103 9.97853C170.548 9.05748 170.103 8.22759 169.716 7.46371C168.899 5.93141 168.269 4.31202 167.84 2.6384C167.84 2.56117 167.811 2.48643 167.759 2.42845C167.706 2.37048 167.633 2.33331 167.554 2.32404C167.476 2.30344 167.394 2.30344 167.317 2.32404C167.301 2.32404 167.275 2.35233 167.255 2.35862C167.236 2.36491 167.193 2.3932 167.164 2.40577L167.213 2.32404C135.603 20.2422 124.871 53.4064 123.897 70.0042C111.269 70.8424 99.1952 75.3459 89.2508 82.9273C88.2137 82.0768 87.1297 81.2814 86.0037 80.5445C83.1365 70.8276 83.0143 60.544 85.6498 50.7658C74.0411 56.2098 63.7262 63.9276 55.3579 73.4307H55.2995C50.312 67.3102 50.6627 47.1288 50.9484 42.9133C49.4729 43.4874 48.0645 44.2113 46.7467 45.0729C42.3438 48.115 38.2277 51.5286 34.4468 55.2736C30.1382 59.5026 26.2031 64.0736 22.6827 68.9386V68.9574V68.9354C14.5927 80.0372 8.85405 92.5801 5.79792 105.84L5.62907 106.645C5.39204 107.717 4.53806 113.086 4.39194 114.253C4.39194 114.344 4.37246 114.429 4.36272 114.52C3.26114 120.063 2.57853 125.676 2.32031 131.316V131.944C2.37593 162.432 14.2357 191.792 35.5585 214.228C56.8812 236.664 86.1174 250.545 117.496 253.133C148.874 255.72 180.114 246.825 205.049 228.203C229.984 209.581 246.802 182.586 252.182 152.547C252.393 150.975 252.565 149.419 252.754 147.832C255.346 127.09 252.54 106.051 244.591 86.6272L244.604 86.646ZM99.557 182.021C100.145 182.294 100.697 182.59 101.301 182.851L101.388 182.904C100.778 182.621 100.167 182.327 99.557 182.021ZM232.128 93.0148V92.8985L232.151 93.0274L232.128 93.0148Z" fill="url(#paint0_linear_741_23)"/>
<path d="M244.605 86.6447C239.137 73.9071 228.045 60.1541 219.359 55.8066C225.553 67.4185 229.852 79.8889 232.104 92.7745V92.8908L232.126 93.0197C241.828 119.894 240.425 149.358 228.21 175.254C213.787 205.215 178.887 235.925 124.239 234.416C65.2076 232.797 13.1896 190.375 3.48088 134.829C1.71123 126.068 3.48088 121.626 4.37058 114.506C3.15699 120.036 2.47974 125.665 2.34766 131.317V131.946C2.40327 162.434 14.263 191.793 35.5858 214.229C56.9086 236.665 86.1447 250.547 117.523 253.134C148.901 255.722 180.141 246.827 205.076 228.205C230.011 209.583 246.829 182.588 252.21 152.549C252.421 150.977 252.593 149.421 252.781 147.833C255.373 127.092 252.567 106.053 244.618 86.6289L244.605 86.6447Z" fill="url(#paint1_radial_741_23)"/>
<path d="M244.605 86.6447C239.137 73.9071 228.045 60.1541 219.359 55.8066C225.553 67.4185 229.852 79.8889 232.104 92.7745V92.8908L232.126 93.0197C241.828 119.894 240.425 149.358 228.21 175.254C213.787 205.215 178.887 235.925 124.239 234.416C65.2076 232.797 13.1896 190.375 3.48088 134.829C1.71123 126.068 3.48088 121.626 4.37058 114.506C3.15699 120.036 2.47974 125.665 2.34766 131.317V131.946C2.40327 162.434 14.263 191.793 35.5858 214.229C56.9086 236.665 86.1447 250.547 117.523 253.134C148.901 255.722 180.141 246.827 205.076 228.205C230.011 209.583 246.829 182.588 252.21 152.549C252.421 150.977 252.593 149.421 252.781 147.833C255.373 127.092 252.567 106.053 244.618 86.6289L244.605 86.6447Z" fill="url(#paint2_radial_741_23)"/>
<path d="M183.429 100.949C183.702 101.134 183.955 101.32 184.211 101.505C181.05 96.0783 177.115 91.1099 172.522 86.7461C133.395 48.8666 162.271 4.63719 167.138 2.37385L167.187 2.30469C135.577 20.2228 124.845 53.387 123.871 69.9849C125.339 69.8874 126.793 69.768 128.294 69.768C139.508 69.789 150.518 72.6844 160.202 78.1601C169.886 83.6357 177.9 91.4961 183.429 100.942V100.949Z" fill="url(#paint3_radial_741_23)"/>
<path d="M128.358 108.525C128.151 111.555 117.091 122.007 113.224 122.007C77.4412 122.007 71.6289 142.965 71.6289 142.965C73.2135 160.613 85.916 175.155 101.271 182.825C101.973 183.177 102.684 183.495 103.395 183.806C104.627 184.334 105.858 184.822 107.09 185.271C112.36 187.076 117.88 188.107 123.465 188.329C186.198 191.177 198.342 115.714 153.075 93.8034C163.753 92.4583 174.567 95.0002 183.419 100.936C177.89 91.4899 169.876 83.6294 160.192 78.1538C150.508 72.6782 139.499 69.7827 128.284 69.7617C126.79 69.7617 125.329 69.8812 123.861 69.9786C111.233 70.8168 99.1594 75.3203 89.215 82.9017C91.134 84.4734 93.2998 86.5733 97.862 90.9271C106.402 99.072 128.303 107.509 128.352 108.499L128.358 108.525Z" fill="url(#paint4_radial_741_23)"/>
<path d="M128.358 108.525C128.151 111.555 117.091 122.007 113.224 122.007C77.4412 122.007 71.6289 142.965 71.6289 142.965C73.2135 160.613 85.916 175.155 101.271 182.825C101.973 183.177 102.684 183.495 103.395 183.806C104.627 184.334 105.858 184.822 107.09 185.271C112.36 187.076 117.88 188.107 123.465 188.329C186.198 191.177 198.342 115.714 153.075 93.8034C163.753 92.4583 174.567 95.0002 183.419 100.936C177.89 91.4899 169.876 83.6294 160.192 78.1538C150.508 72.6782 139.499 69.7827 128.284 69.7617C126.79 69.7617 125.329 69.8812 123.861 69.9786C111.233 70.8168 99.1594 75.3203 89.215 82.9017C91.134 84.4734 93.2998 86.5733 97.862 90.9271C106.402 99.072 128.303 107.509 128.352 108.499L128.358 108.525Z" fill="url(#paint5_radial_741_23)"/>
<path d="M83.3529 78.8809C84.3724 79.5096 85.2134 80.0566 85.9505 80.5501C83.0833 70.8333 82.9611 60.5497 85.5966 50.7715C73.9879 56.2154 63.6729 63.9332 55.3047 73.4363C55.9184 73.4206 74.1734 73.1031 83.3529 78.8809Z" fill="url(#paint6_radial_741_23)"/>
<path d="M3.45745 134.835C13.1694 190.381 65.1842 232.819 124.216 234.422C178.864 235.918 213.77 205.206 228.187 175.261C240.402 149.365 241.805 119.9 232.103 93.026V92.9097C232.103 92.8185 232.083 92.765 232.103 92.7933L232.126 92.9977C236.59 121.217 221.764 148.544 198.583 167.059L198.512 167.216C153.345 202.833 110.127 188.699 101.392 182.934C100.782 182.651 100.171 182.357 99.5609 182.051C73.2304 169.866 62.3495 146.655 64.6874 126.725C58.4371 126.814 52.2943 125.146 47.003 121.924C41.7118 118.702 37.4994 114.064 34.8761 108.571C41.7884 104.471 49.6699 102.154 57.7696 101.839C65.8693 101.524 73.9173 103.223 81.1468 106.773C96.0485 113.321 113.005 113.966 128.392 108.571C128.343 107.581 106.441 99.1401 97.9017 90.9984C93.3395 86.6446 91.1737 84.5479 89.2547 82.973C88.2176 82.1225 87.1337 81.3271 86.0077 80.5902C85.2608 80.0966 84.4198 79.5622 83.41 78.9209C74.2305 73.1431 55.9755 73.4606 55.3716 73.4764H55.3131C50.3256 67.3559 50.6763 47.1745 50.9621 42.959C49.4866 43.5331 48.0781 44.257 46.7603 45.1186C42.3574 48.1607 38.2414 51.5743 34.4605 55.3193C30.1364 59.5365 26.185 64.0969 22.6476 68.9528C14.5577 80.0546 8.819 92.5944 5.76287 105.855C5.70118 106.103 1.22997 125.027 3.43472 134.841L3.45745 134.835Z" fill="url(#paint7_radial_741_23)"/>
<path d="M172.517 86.7395C177.112 91.1081 181.047 96.0819 184.207 101.514C184.898 102.02 185.545 102.523 186.093 103.01C214.625 128.473 199.676 164.466 198.562 167.013C221.74 148.526 236.553 121.18 232.104 92.9511C217.869 58.5924 193.724 44.7294 174.047 14.583C173.05 13.0584 172.053 11.5306 171.082 9.91799C170.527 8.99693 170.082 8.16704 169.696 7.40316C168.878 5.87086 168.248 4.25148 167.819 2.57785C167.819 2.50062 167.791 2.42589 167.738 2.36791C167.685 2.30993 167.612 2.27276 167.533 2.2635C167.455 2.2429 167.374 2.2429 167.296 2.2635C167.28 2.2635 167.254 2.29179 167.234 2.29807C167.215 2.30436 167.173 2.33265 167.143 2.34523C162.276 4.58028 133.406 48.838 172.534 86.6861L172.517 86.7395Z" fill="url(#paint8_radial_741_23)"/>
<path d="M186.09 103.023C185.541 102.536 184.895 102.033 184.204 101.527C183.947 101.342 183.694 101.156 183.421 100.971C174.569 95.0348 163.755 92.4929 153.077 93.838C198.341 115.748 186.197 191.193 123.467 188.364C117.882 188.142 112.362 187.111 107.092 185.305C105.86 184.859 104.629 184.371 103.397 183.84C102.686 183.526 101.975 183.212 101.273 182.86L101.361 182.913C110.109 188.694 153.314 202.818 198.481 167.195L198.552 167.038C199.679 164.492 214.629 128.499 186.084 103.036L186.09 103.023Z" fill="url(#paint9_radial_741_23)"/>
<path d="M71.6337 142.945C71.6337 142.945 77.4427 121.987 113.229 121.987C117.096 121.987 128.165 111.535 128.363 108.505C112.976 113.9 96.0201 113.255 81.1184 106.707C73.8889 103.157 65.8409 101.459 57.7412 101.773C49.6415 102.088 41.76 104.406 34.8477 108.505C37.471 113.998 41.6834 118.636 46.9746 121.858C52.2658 125.081 58.4087 126.748 64.659 126.659C62.3276 146.579 73.2053 169.788 99.5325 181.985C100.12 182.258 100.672 182.554 101.276 182.815C85.9078 175.129 73.2183 160.593 71.6337 142.955V142.945Z" fill="url(#paint10_radial_741_23)"/>
<path d="M244.605 86.6461C239.137 73.9085 228.045 60.1555 219.359 55.808C225.553 67.4199 229.852 79.8903 232.104 92.7759L232.126 92.9803C217.898 58.6529 193.778 44.79 174.069 14.6435C173.072 13.1189 172.075 11.5912 171.104 9.97853C170.549 9.05748 170.104 8.22759 169.718 7.46371C168.9 5.93141 168.271 4.31202 167.841 2.6384C167.841 2.56117 167.813 2.48643 167.76 2.42845C167.707 2.37048 167.634 2.33331 167.555 2.32404C167.478 2.30344 167.396 2.30344 167.318 2.32404C167.302 2.32404 167.276 2.35233 167.256 2.35862C167.237 2.36491 167.195 2.3932 167.166 2.40577L167.214 2.32404C135.604 20.2422 124.872 53.4064 123.898 70.0042C125.366 69.9068 126.821 69.7873 128.321 69.7873C139.536 69.8083 150.545 72.7038 160.229 78.1794C169.913 83.655 177.927 91.5155 183.456 100.962C174.604 95.0258 163.79 92.4839 153.112 93.829C198.376 115.739 186.232 191.184 123.502 188.355C117.917 188.133 112.397 187.102 107.127 185.296C105.896 184.85 104.664 184.362 103.432 183.831C102.721 183.517 102.01 183.203 101.308 182.851L101.396 182.904C100.786 182.621 100.175 182.327 99.5648 182.021C100.153 182.294 100.705 182.59 101.308 182.851C85.9401 175.162 73.2506 160.626 71.666 142.991C71.666 142.991 77.475 122.033 113.261 122.033C117.128 122.033 128.197 111.581 128.396 108.55C128.347 107.56 106.445 99.1196 97.9056 90.9778C93.3434 86.6241 91.1776 84.5273 89.2586 82.9524C88.2215 82.102 87.1376 81.3065 86.0116 80.5696C83.1444 70.8527 83.0221 60.5691 85.6576 50.791C74.0489 56.2349 63.734 63.9527 55.3657 73.4558H55.3073C50.3198 67.3354 50.6705 47.1539 50.9562 42.9384C49.4807 43.5125 48.0723 44.2364 46.7545 45.098C42.3516 48.1402 38.2355 51.5537 34.4546 55.2988C30.146 59.5278 26.2109 64.0987 22.6905 68.9637C14.6005 80.0655 8.86186 92.6053 5.80573 105.866L5.63689 106.67C5.39985 107.742 4.33806 113.187 4.18545 114.356C3.21425 119.976 2.59402 125.648 2.32812 131.341V131.969C2.38374 162.457 14.2435 191.817 35.5663 214.253C56.889 236.689 86.1252 250.571 117.503 253.158C148.882 255.745 180.122 246.85 205.057 228.228C229.992 209.607 246.809 182.612 252.19 152.572C252.401 151 252.573 149.444 252.761 147.857C255.354 127.116 252.547 106.076 244.598 86.6523L244.605 86.6461Z" fill="url(#paint11_linear_741_23)"/>
<defs>
<linearGradient id="paint0_linear_741_23" x1="227.946" y1="41.2407" x2="25.5535" y2="242.947" gradientUnits="userSpaceOnUse">
<stop offset="0.048" stop-color="#FFF44F"/>
<stop offset="0.111" stop-color="#FFE847"/>
<stop offset="0.225" stop-color="#FFC830"/>
<stop offset="0.368" stop-color="#FF980E"/>
<stop offset="0.401" stop-color="#FF8B16"/>
<stop offset="0.462" stop-color="#FF672A"/>
<stop offset="0.534" stop-color="#FF3647"/>
<stop offset="0.705" stop-color="#E31587"/>
</linearGradient>
<radialGradient id="paint1_radial_741_23" cx="0" cy="0" r="1" gradientUnits="userSpaceOnUse" gradientTransform="translate(219.862 30.5955) scale(262.363 253.997)">
<stop offset="0.129" stop-color="#FFBD4F"/>
<stop offset="0.186" stop-color="#FFAC31"/>
<stop offset="0.247" stop-color="#FF9D17"/>
<stop offset="0.283" stop-color="#FF980E"/>
<stop offset="0.403" stop-color="#FF563B"/>
<stop offset="0.467" stop-color="#FF3750"/>
<stop offset="0.71" stop-color="#F5156C"/>
<stop offset="0.782" stop-color="#EB0878"/>
<stop offset="0.86" stop-color="#E50080"/>
</radialGradient>
<radialGradient id="paint2_radial_741_23" cx="0" cy="0" r="1" gradientUnits="userSpaceOnUse" gradientTransform="translate(122.45 134.332) scale(262.363 253.997)">
<stop offset="0.3" stop-color="#960E18"/>
<stop offset="0.351" stop-color="#B11927" stop-opacity="0.74"/>
<stop offset="0.435" stop-color="#DB293D" stop-opacity="0.343"/>
<stop offset="0.497" stop-color="#F5334B" stop-opacity="0.094"/>
<stop offset="0.53" stop-color="#FF3750" stop-opacity="0"/>
</radialGradient>
<radialGradient id="paint3_radial_741_23" cx="0" cy="0" r="1" gradientUnits="userSpaceOnUse" gradientTransform="translate(154.92 -25.9871) scale(190.051 183.991)">
<stop offset="0.132" stop-color="#FFF44F"/>
<stop offset="0.252" stop-color="#FFDC3E"/>
<stop offset="0.506" stop-color="#FF9D12"/>
<stop offset="0.526" stop-color="#FF980E"/>
</radialGradient>
<radialGradient id="paint4_radial_741_23" cx="0" cy="0" r="1" gradientUnits="userSpaceOnUse" gradientTransform="translate(93.2252 200.347) scale(124.915 120.932)">
<stop offset="0.353" stop-color="#3A8EE6"/>
<stop offset="0.472" stop-color="#5C79F0"/>
<stop offset="0.669" stop-color="#9059FF"/>
<stop offset="1" stop-color="#C139E6"/>
</radialGradient>
<radialGradient id="paint5_radial_741_23" cx="0" cy="0" r="1" gradientUnits="userSpaceOnUse" gradientTransform="translate(135.138 112.529) rotate(-13.1735) scale(66.1256 75.2086)">
<stop offset="0.206" stop-color="#9059FF" stop-opacity="0"/>
<stop offset="0.278" stop-color="#8C4FF3" stop-opacity="0.064"/>
<stop offset="0.747" stop-color="#7716A8" stop-opacity="0.45"/>
<stop offset="0.975" stop-color="#6E008B" stop-opacity="0.6"/>
</radialGradient>
<radialGradient id="paint6_radial_741_23" cx="0" cy="0" r="1" gradientUnits="userSpaceOnUse" gradientTransform="translate(119.2 21.1657) scale(89.8788 87.0129)">
<stop stop-color="#FFE226"/>
<stop offset="0.121" stop-color="#FFDB27"/>
<stop offset="0.295" stop-color="#FFC82A"/>
<stop offset="0.502" stop-color="#FFA930"/>
<stop offset="0.732" stop-color="#FF7E37"/>
<stop offset="0.792" stop-color="#FF7139"/>
</radialGradient>
<radialGradient id="paint7_radial_741_23" cx="0" cy="0" r="1" gradientUnits="userSpaceOnUse" gradientTransform="translate(190.638 -35.4186) scale(383.479 371.251)">
<stop offset="0.113" stop-color="#FFF44F"/>
<stop offset="0.456" stop-color="#FF980E"/>
<stop offset="0.622" stop-color="#FF5634"/>
<stop offset="0.716" stop-color="#FF3647"/>
<stop offset="0.904" stop-color="#E31587"/>
</radialGradient>
<radialGradient id="paint8_radial_741_23" cx="0" cy="0" r="1" gradientUnits="userSpaceOnUse" gradientTransform="translate(158.763 -14.8342) rotate(83.7791) scale(272.158 184.362)">
<stop stop-color="#FFF44F"/>
<stop offset="0.06" stop-color="#FFE847"/>
<stop offset="0.168" stop-color="#FFC830"/>
<stop offset="0.304" stop-color="#FF980E"/>
<stop offset="0.356" stop-color="#FF8B16"/>
<stop offset="0.455" stop-color="#FF672A"/>
<stop offset="0.57" stop-color="#FF3647"/>
<stop offset="0.737" stop-color="#E31587"/>
</radialGradient>
<radialGradient id="paint9_radial_741_23" cx="0" cy="0" r="1" gradientUnits="userSpaceOnUse" gradientTransform="translate(119.201 52.6012) scale(239.374 231.741)">
<stop offset="0.137" stop-color="#FFF44F"/>
<stop offset="0.48" stop-color="#FF980E"/>
<stop offset="0.592" stop-color="#FF5634"/>
<stop offset="0.655" stop-color="#FF3647"/>
<stop offset="0.904" stop-color="#E31587"/>
</radialGradient>
<radialGradient id="paint10_radial_741_23" cx="0" cy="0" r="1" gradientUnits="userSpaceOnUse" gradientTransform="translate(180.898 65.1745) scale(262.006 253.651)">
<stop offset="0.094" stop-color="#FFF44F"/>
<stop offset="0.231" stop-color="#FFE141"/>
<stop offset="0.509" stop-color="#FFAF1E"/>
<stop offset="0.626" stop-color="#FF980E"/>
</radialGradient>
<linearGradient id="paint11_linear_741_23" x1="225.415" y1="40.2033" x2="53.4292" y2="217.886" gradientUnits="userSpaceOnUse">
<stop offset="0.167" stop-color="#FFF44F" stop-opacity="0.8"/>
<stop offset="0.266" stop-color="#FFF44F" stop-opacity="0.634"/>
<stop offset="0.489" stop-color="#FFF44F" stop-opacity="0.217"/>
<stop offset="0.6" stop-color="#FFF44F" stop-opacity="0"/>
</linearGradient>
</defs>
</svg>
