<svg width="256" height="256" viewBox="0 0 256 256" fill="none" xmlns="http://www.w3.org/2000/svg">
<g opacity="0.53" filter="url(#filter0_f_741_14)">
<path d="M244.759 132.068C244.759 146.913 241.739 161.613 235.871 175.328C230.004 189.044 221.404 201.506 210.562 212.003C199.72 222.5 186.85 230.827 172.684 236.508C158.519 242.19 143.337 245.114 128.004 245.114C112.672 245.114 97.4896 242.19 83.3243 236.508C69.1591 230.827 56.2882 222.5 45.4465 212.003C34.6049 201.506 26.0048 189.044 20.1374 175.328C14.2699 161.613 11.25 146.913 11.25 132.068C11.25 102.086 23.5509 73.3322 45.4465 52.1319C67.3422 30.9317 97.0391 19.0215 128.004 19.0215C143.337 19.0215 158.519 21.9455 172.684 27.6266C186.85 33.3077 199.72 41.6346 210.562 52.1319C221.404 62.6292 230.004 75.0913 235.871 88.8067C241.739 102.522 244.759 117.222 244.759 132.068Z" fill="black"/>
</g>
<path d="M249.199 122.087C249.199 138.09 246.064 153.937 239.973 168.723C233.883 183.508 224.955 196.943 213.701 208.259C202.446 219.575 189.085 228.552 174.381 234.676C159.676 240.801 143.916 243.953 128 243.953C95.8559 243.953 65.0284 231.113 42.2992 208.259C19.5699 185.405 6.80078 154.408 6.80078 122.087C6.80078 89.7659 19.5699 58.7688 42.2992 35.9145C65.0284 13.0602 95.8559 0.220711 128 0.220703C143.916 0.220702 159.676 3.37287 174.381 9.49722C189.085 15.6216 202.446 24.5982 213.701 35.9145C224.955 47.2308 233.883 60.6652 239.973 75.4506C246.064 90.2361 249.199 106.083 249.199 122.087Z" fill="url(#paint0_linear_741_14)" stroke="#CDCDCD" stroke-width="0.351543" stroke-linecap="round" stroke-linejoin="round"/>
<path d="M239.701 122.086C239.701 151.875 227.933 180.443 206.984 201.506C186.036 222.57 157.624 234.403 127.999 234.403C98.3738 234.403 69.9619 222.57 49.0137 201.506C28.0655 180.443 16.2969 151.875 16.2969 122.086C16.2969 92.298 28.0655 63.7298 49.0137 42.6663C69.9619 21.6029 98.3738 9.76953 127.999 9.76953C157.624 9.76953 186.036 21.6029 206.984 42.6663C227.933 63.7298 239.701 92.298 239.701 122.086Z" fill="url(#paint1_radial_741_14)"/>
<path d="M128.001 15.627C127.099 15.627 126.373 16.3573 126.373 17.2645V36.1528C126.373 37.06 127.099 37.7903 128.001 37.7903C128.903 37.7903 129.63 37.06 129.63 36.1528V17.2645C129.63 16.3573 128.903 15.627 128.001 15.627ZM117.347 16.304C117.239 16.2924 117.128 16.2924 117.016 16.3054C116.118 16.3995 115.471 17.2017 115.565 18.1041L116.386 26.0061C116.48 26.9084 117.278 27.5591 118.175 27.4648C119.072 27.3707 119.719 26.5685 119.626 25.6662L118.805 17.7642C118.723 16.9746 118.102 16.3778 117.347 16.304ZM138.73 16.3118C137.975 16.385 137.353 16.9818 137.271 17.7712L136.444 25.6726C136.35 26.5748 136.997 27.3778 137.894 27.4727C138.791 27.5676 139.589 26.9176 139.684 26.0153L140.51 18.1133C140.605 17.211 139.957 16.4088 139.06 16.3139C138.948 16.3022 138.838 16.3022 138.73 16.3118ZM106.403 17.8999C106.294 17.9007 106.184 17.9115 106.074 17.9349C105.191 18.1228 104.631 18.9887 104.818 19.8763L108.708 38.3547C108.895 39.2423 109.756 39.8055 110.639 39.6177C111.522 39.4298 112.082 38.5645 111.895 37.6769L108.005 19.1978C107.841 18.4212 107.161 17.8939 106.403 17.8999ZM149.674 17.9154C148.915 17.9076 148.235 18.4365 148.071 19.213L144.167 37.6892C143.98 38.5767 144.539 39.4428 145.422 39.6314C146.304 39.82 147.166 39.2571 147.353 38.3698L151.257 19.8935C151.445 19.0061 150.885 18.1399 150.003 17.9514C149.892 17.9281 149.782 17.9154 149.674 17.9154ZM95.9579 20.8611C95.747 20.8416 95.5293 20.865 95.3148 20.9365C94.4567 21.217 93.9901 22.1367 94.2689 22.9995L96.7107 30.556C96.9897 31.4188 97.905 31.888 98.7631 31.6076C99.6212 31.3271 100.087 30.4068 99.8082 29.544L97.3665 21.9875C97.1576 21.3404 96.5904 20.9152 95.9579 20.8611ZM160.059 20.865C159.427 20.919 158.86 21.3444 158.651 21.9915L156.207 29.5473C155.928 30.41 156.395 31.3305 157.253 31.6109C158.111 31.8914 159.026 31.4226 159.305 30.56L161.748 23.0036C162.027 22.1408 161.561 21.2203 160.703 20.9399C160.489 20.8699 160.27 20.8471 160.059 20.865ZM85.6292 24.6616C85.4175 24.6654 85.2034 24.7121 84.9973 24.8043C84.1733 25.1728 83.8043 26.1365 84.1707 26.9655L91.8004 44.2256C92.1668 45.0545 93.1253 45.4252 93.9498 45.0567C94.7738 44.6883 95.1436 43.7245 94.7771 42.8955L87.1467 25.6355C86.872 25.0137 86.2639 24.6492 85.6292 24.6616ZM170.505 24.7195C169.87 24.7079 169.261 25.07 168.986 25.6913L161.333 42.9407C160.965 43.7692 161.333 44.7337 162.157 45.1033C162.981 45.4729 163.94 45.1035 164.307 44.275L171.96 27.0257C172.328 26.1971 171.96 25.2326 171.137 24.863C170.931 24.7708 170.716 24.7242 170.505 24.7195ZM76.042 29.7621C75.7294 29.7388 75.4072 29.8088 75.1142 29.9792C74.3328 30.4328 74.0671 31.4304 74.5182 32.216L78.4691 39.0969C78.9202 39.8826 79.9122 40.1498 80.6936 39.6962C81.475 39.2426 81.7408 38.245 81.2897 37.4593L77.3388 30.5786C77.0567 30.0875 76.5632 29.7988 76.042 29.7621ZM179.96 29.7621C179.439 29.7971 178.946 30.0874 178.664 30.5784L174.713 37.4592C174.262 38.2449 174.528 39.2424 175.309 39.6961C176.091 40.1497 177.083 39.8824 177.534 39.0968L181.485 32.2159C181.936 31.4303 181.67 30.4327 180.889 29.9791C180.596 29.8091 180.273 29.7403 179.96 29.7621ZM66.7325 35.6005C66.4191 35.6122 66.1053 35.7133 65.8314 35.9129C65.1011 36.4456 64.9396 37.4656 65.4696 38.1999L76.4998 53.4888C77.0296 54.2231 78.0447 54.3855 78.775 53.8529C79.5053 53.3202 79.6668 52.3003 79.1367 51.5659L68.1059 36.277C67.7747 35.818 67.2545 35.5826 66.7325 35.6005ZM189.387 35.6837C188.865 35.6643 188.344 35.8997 188.012 36.358L176.961 51.6321C176.43 52.3657 176.591 53.3861 177.32 53.9198C178.05 54.4535 179.065 54.2929 179.596 53.5595L190.646 38.2855C191.177 37.5518 191.016 36.5315 190.287 35.9977C190.014 35.7978 189.7 35.695 189.387 35.6837ZM58.4111 42.6176C57.9954 42.5942 57.5712 42.7339 57.2359 43.0374C56.5653 43.6443 56.5114 44.6756 57.1152 45.3498L62.4022 51.2554C63.0058 51.9296 64.0314 51.9839 64.702 51.3767C65.3726 50.7698 65.4265 49.7378 64.8227 49.0636L59.5364 43.1587C59.2346 42.8215 58.8269 42.6395 58.4111 42.6176ZM197.603 42.6292C197.187 42.6526 196.78 42.8335 196.478 43.1706L191.191 49.0747C190.587 49.7489 190.641 50.7808 191.311 51.3879C191.982 51.9949 193.007 51.9405 193.611 51.2665L198.899 45.3624C199.503 44.6882 199.448 43.6562 198.778 43.0492C198.443 42.7458 198.019 42.6073 197.603 42.6292ZM50.4357 50.3207C50.0199 50.344 49.6129 50.5249 49.311 50.862C48.7074 51.5363 48.7614 52.5675 49.4317 53.1745L63.3929 65.8117C64.0635 66.4187 65.0891 66.3644 65.6927 65.6903C66.2964 65.0161 66.2431 63.9848 65.5724 63.3778L51.6105 50.7407C51.2751 50.4372 50.8514 50.2987 50.4357 50.3207ZM205.617 50.3759C205.202 50.3526 204.777 50.4918 204.441 50.795L190.472 63.4224C189.801 64.0288 189.746 65.0601 190.349 65.7348C190.952 66.4094 191.978 66.4643 192.649 65.8577L206.62 53.2304C207.291 52.6239 207.345 51.5927 206.742 50.9179C206.44 50.5807 206.033 50.3981 205.617 50.3759ZM43.8033 58.8957C43.2812 58.8762 42.7607 59.1128 42.4292 59.5713C41.8989 60.3053 42.0597 61.3251 42.7898 61.8584L49.1825 66.5285C49.9124 67.0618 50.9266 66.9008 51.4569 66.1667C51.9873 65.4327 51.8268 64.4122 51.0971 63.879L44.7045 59.2088C44.4309 59.0089 44.1166 58.907 43.8033 58.8957ZM212.243 58.9552C211.93 58.9669 211.616 59.0677 211.342 59.2676L204.947 63.9335C204.217 64.4663 204.055 65.4869 204.585 66.2213C205.115 66.9556 206.129 67.1173 206.859 66.5846L213.255 61.9187C213.986 61.386 214.146 60.366 213.617 59.6317C213.286 59.1728 212.765 58.9372 212.243 58.9552ZM37.6054 68.0425C37.0843 68.0775 36.5913 68.3677 36.3093 68.8588C35.8582 69.6444 36.124 70.642 36.9053 71.0956L53.1733 80.5397C53.9547 80.9934 54.9468 80.7261 55.3979 79.9404C55.8491 79.1548 55.5833 78.1572 54.8019 77.7036L38.5339 68.2594C38.241 68.0894 37.9181 68.0207 37.6054 68.0425ZM218.397 68.0425C218.084 68.0192 217.761 68.0892 217.468 68.2596L201.2 77.7038C200.419 78.1574 200.153 79.1549 200.604 79.9406C201.056 80.7263 202.048 80.9935 202.829 80.5399L219.098 71.0958C219.879 70.6421 220.145 69.6446 219.694 68.8589C219.412 68.3679 218.918 68.0791 218.397 68.0425ZM32.9193 77.792C32.2847 77.7764 31.6761 78.1417 31.4004 78.763C31.0329 79.5916 31.4002 80.5561 32.2242 80.9256L39.4413 84.1625C40.2653 84.5321 41.2246 84.1628 41.5921 83.3342C41.9597 82.5057 41.5916 81.5411 40.7676 81.1716L33.5512 77.9347C33.3454 77.8421 33.1309 77.7962 32.9193 77.792ZM223.115 77.8593C222.903 77.8632 222.688 77.9098 222.482 78.002L215.264 81.2332C214.439 81.6024 214.071 82.5664 214.438 83.3952C214.805 84.224 215.764 84.5945 216.589 84.2256L223.807 80.9936C224.631 80.6248 224.999 79.6605 224.632 78.8317C224.357 78.2101 223.749 77.8466 223.115 77.8593ZM28.7429 87.9819C28.1103 88.0352 27.5432 88.4601 27.3336 89.107C27.0543 89.9696 27.5193 90.8903 28.3774 91.1714L46.2381 97.0232C47.0959 97.3041 48.0116 96.8361 48.2912 95.9737C48.5705 95.1112 48.1055 94.1904 47.2474 93.9093L29.3867 88.0575C29.1724 87.9871 28.9537 87.964 28.7429 87.9819ZM227.283 88.0519C227.073 88.0325 226.855 88.0558 226.64 88.1274L208.775 93.9665C207.917 94.247 207.451 95.1674 207.73 96.0302C208.009 96.893 208.924 97.3616 209.783 97.0811L227.647 91.242C228.505 90.9615 228.972 90.0411 228.693 89.1784C228.483 88.5313 227.916 88.1059 227.283 88.0519ZM26.1409 98.6785C25.3821 98.6707 24.7017 99.2003 24.5376 99.9768C24.3499 100.864 24.9098 101.73 25.7922 101.919L33.5217 103.571C34.4043 103.759 35.2656 103.196 35.4532 102.309C35.6408 101.422 35.081 100.556 34.1986 100.367L26.4698 98.7152C26.3595 98.6919 26.2492 98.6785 26.1409 98.6785ZM229.865 98.6941C229.757 98.695 229.647 98.7096 229.537 98.7291L221.807 100.38C220.925 100.569 220.365 101.434 220.553 102.321C220.741 103.209 221.602 103.772 222.484 103.584L230.213 101.933C231.096 101.744 231.656 100.878 231.468 99.9906C231.304 99.2141 230.624 98.6876 229.865 98.6941ZM24.1714 109.438C23.4161 109.511 22.7945 110.107 22.7115 110.896C22.6168 111.798 23.2622 112.601 24.1594 112.697L42.8404 114.683C43.7376 114.778 44.5365 114.128 44.6313 113.226C44.7261 112.324 44.08 111.521 43.1827 111.425L24.5018 109.439C24.3896 109.428 24.2793 109.428 24.1714 109.438ZM231.849 109.579C231.741 109.568 231.63 109.568 231.517 109.581L212.834 111.541C211.937 111.635 211.29 112.437 211.384 113.34C211.477 114.242 212.275 114.893 213.172 114.798L231.855 112.838C232.753 112.744 233.4 111.942 233.306 111.039C233.224 110.25 232.604 109.653 231.849 109.579ZM23.8551 120.452C22.9528 120.452 22.2266 121.182 22.2266 122.089C22.2266 122.996 22.9528 123.727 23.8551 123.727H31.7568C32.659 123.727 33.3861 122.996 33.3861 122.089C33.3861 121.182 32.659 120.452 31.7568 120.452H23.8551ZM224.246 120.452C223.343 120.452 222.617 121.182 222.617 122.089C222.617 122.996 223.343 123.727 224.246 123.727H232.147C233.05 123.727 233.776 122.996 233.776 122.089C233.776 121.182 233.05 120.452 232.147 120.452H224.246ZM43.1609 129.379C43.053 129.367 42.9427 129.367 42.8305 129.38L24.1467 131.34C23.2493 131.435 22.6024 132.237 22.696 133.139C22.7896 134.041 23.5874 134.692 24.4848 134.598L43.1686 132.637C44.066 132.543 44.7128 131.741 44.6193 130.839C44.5373 130.049 43.9161 129.452 43.1609 129.379ZM212.832 129.494C212.076 129.567 211.455 130.163 211.372 130.952C211.277 131.855 211.922 132.658 212.82 132.753L231.501 134.739C232.398 134.834 233.197 134.185 233.292 133.283C233.386 132.38 232.74 131.577 231.843 131.482L213.163 129.496C213.05 129.484 212.94 129.484 212.832 129.494ZM33.8478 140.557C33.7395 140.558 33.6292 140.569 33.519 140.592L25.7895 142.243C24.9069 142.432 24.3474 143.298 24.5348 144.185C24.7225 145.073 25.5838 145.635 26.4664 145.447L34.1959 143.796C35.0784 143.608 35.6379 142.742 35.4504 141.854C35.2864 141.078 34.6065 140.551 33.8478 140.557ZM222.152 140.573C221.394 140.565 220.714 141.094 220.55 141.87C220.362 142.758 220.921 143.624 221.804 143.812L229.533 145.464C230.416 145.653 231.277 145.09 231.465 144.203C231.652 143.316 231.093 142.449 230.21 142.26L222.481 140.609C222.371 140.585 222.261 140.573 222.152 140.573ZM46.8636 147.022C46.6528 147.003 46.435 147.026 46.2205 147.098L28.3556 152.937C27.4975 153.217 27.0315 154.138 27.3104 155.001C27.5894 155.863 28.5047 156.332 29.3628 156.051L47.227 150.212C48.0851 149.932 48.5518 149.011 48.2729 148.149C48.0636 147.502 47.4961 147.076 46.8636 147.022ZM209.121 147.08C208.489 147.134 207.922 147.558 207.712 148.205C207.433 149.068 207.898 149.989 208.756 150.27L226.616 156.122C227.474 156.402 228.39 155.934 228.669 155.072C228.949 154.21 228.484 153.289 227.626 153.008L209.765 147.156C209.551 147.085 209.332 147.062 209.121 147.08ZM40.0465 159.812C39.8348 159.815 39.6206 159.861 39.4146 159.954L32.1954 163.185C31.3711 163.554 31.0033 164.519 31.3702 165.347C31.7374 166.176 32.6961 166.546 33.5203 166.177L40.7395 162.946C41.5638 162.577 41.9316 161.613 41.5647 160.784C41.2896 160.162 40.6811 159.799 40.0465 159.812ZM215.93 159.874C215.295 159.858 214.687 160.223 214.411 160.845C214.043 161.673 214.411 162.638 215.235 163.007L222.451 166.244C223.275 166.614 224.234 166.245 224.602 165.416C224.97 164.587 224.602 163.623 223.778 163.253L216.562 160.016C216.356 159.924 216.141 159.878 215.93 159.874ZM54.1018 163.422C53.7892 163.399 53.4664 163.469 53.1733 163.639L36.9053 173.084C36.124 173.537 35.8582 174.535 36.3093 175.32C36.7604 176.106 37.7525 176.373 38.5339 175.92L54.8019 166.476C55.5833 166.023 55.849 165.024 55.3979 164.239C55.1159 163.748 54.623 163.459 54.1018 163.422ZM201.901 163.422C201.38 163.457 200.886 163.748 200.604 164.239C200.153 165.024 200.419 166.022 201.2 166.476L217.468 175.92C218.25 176.373 219.243 176.106 219.694 175.32C220.145 174.535 219.879 173.537 219.098 173.083L202.829 163.639C202.536 163.469 202.214 163.401 201.901 163.422ZM50.0441 177.281C49.7308 177.293 49.4169 177.395 49.143 177.595L42.7476 182.261C42.0173 182.793 41.8558 183.813 42.3855 184.548C42.9154 185.282 43.9297 185.444 44.66 184.911L51.0561 180.245C51.7865 179.713 51.948 178.693 51.4182 177.958C51.0871 177.499 50.5662 177.263 50.0441 177.281ZM205.92 177.337C205.397 177.317 204.877 177.554 204.545 178.012C204.015 178.746 204.176 179.767 204.906 180.3L211.299 184.97C212.029 185.503 213.043 185.342 213.573 184.608C214.104 183.874 213.943 182.854 213.213 182.321L206.821 177.65C206.547 177.45 206.233 177.348 205.92 177.337ZM64.5289 177.902C64.1133 177.879 63.6893 178.018 63.3537 178.321L49.3835 190.948C48.7125 191.555 48.658 192.586 49.2612 193.261C49.8643 193.936 50.89 193.99 51.561 193.384L65.5313 180.757C66.2023 180.15 66.2568 179.119 65.6535 178.444C65.3521 178.107 64.9447 177.924 64.5289 177.902ZM191.435 177.947C191.019 177.971 190.611 178.151 190.309 178.489C189.706 179.163 189.76 180.194 190.43 180.801L204.391 193.438C205.062 194.045 206.088 193.991 206.692 193.317C207.296 192.643 207.242 191.611 206.571 191.004L192.609 178.367C192.274 178.064 191.85 177.925 191.435 177.947ZM77.7823 189.943C77.2603 189.924 76.7392 190.159 76.4075 190.618L65.3569 205.892C64.8261 206.625 64.9859 207.646 65.7152 208.179C66.4448 208.713 67.4597 208.553 67.9904 207.819L79.041 192.545C79.5717 191.811 79.412 190.791 78.6827 190.257C78.4092 190.057 78.0956 189.954 77.7823 189.943ZM178.129 190.012C177.816 190.024 177.502 190.124 177.228 190.324C176.498 190.857 176.337 191.877 176.866 192.611L187.896 207.9C188.426 208.635 189.44 208.797 190.171 208.264C190.901 207.732 191.063 206.712 190.533 205.977L179.503 190.688C179.172 190.229 178.651 189.994 178.129 190.012ZM63.5168 192.371C63.1011 192.394 62.6934 192.575 62.3915 192.912L57.1045 198.816C56.5007 199.491 56.5542 200.523 57.2248 201.13C57.8953 201.737 58.9209 201.682 59.5246 201.008L64.8123 195.104C65.4161 194.43 65.3619 193.398 64.6916 192.791C64.3561 192.487 63.9326 192.349 63.5168 192.371ZM192.476 192.379C192.06 192.355 191.637 192.495 191.301 192.799C190.631 193.405 190.577 194.437 191.18 195.111L196.466 201.017C197.07 201.691 198.096 201.745 198.766 201.138C199.437 200.531 199.491 199.499 198.887 198.825L193.601 192.92C193.299 192.583 192.891 192.401 192.476 192.379ZM93.2139 198.929C92.5793 198.913 91.9714 199.279 91.6957 199.9L84.0421 217.149C83.6745 217.978 84.0419 218.942 84.8659 219.312C85.6899 219.682 86.6491 219.312 87.0167 218.484L94.6703 201.234C95.0378 200.406 94.6705 199.441 93.8465 199.072C93.6406 198.979 93.4255 198.933 93.2139 198.929ZM162.685 198.976C162.474 198.98 162.259 199.026 162.053 199.118C161.229 199.487 160.859 200.45 161.226 201.279L168.856 218.539C169.222 219.368 170.181 219.739 171.006 219.371C171.83 219.002 172.199 218.038 171.832 217.209L164.203 199.949C163.928 199.328 163.32 198.964 162.685 198.976ZM79.7651 204.262C79.244 204.297 78.751 204.587 78.4691 205.078L74.5182 211.959C74.0671 212.745 74.3328 213.742 75.1142 214.196C75.8956 214.65 76.8877 214.382 77.3388 213.597L81.2897 206.716C81.7408 205.93 81.475 204.933 80.6936 204.479C80.4007 204.309 80.0778 204.24 79.7651 204.262ZM176.237 204.262C175.925 204.239 175.602 204.309 175.309 204.479C174.528 204.933 174.262 205.93 174.713 206.716L178.664 213.597C179.115 214.382 180.108 214.65 180.889 214.196C181.67 213.742 181.936 212.745 181.485 211.959L177.534 205.078C177.252 204.587 176.758 204.299 176.237 204.262ZM110.252 204.509C109.494 204.501 108.814 205.03 108.65 205.806L104.746 224.283C104.558 225.17 105.118 226.036 106.001 226.225C106.883 226.413 107.745 225.85 107.932 224.963L111.836 206.487C112.023 205.599 111.464 204.733 110.581 204.545C110.471 204.521 110.361 204.509 110.252 204.509ZM145.692 204.52C145.584 204.521 145.475 204.532 145.364 204.555C144.482 204.743 143.921 205.608 144.108 206.496L147.999 224.975C148.186 225.863 149.047 226.426 149.93 226.238C150.812 226.05 151.372 225.184 151.186 224.297L147.294 205.819C147.131 205.042 146.451 204.514 145.692 204.52ZM128.001 206.384C127.099 206.384 126.373 207.114 126.373 208.021V226.91C126.373 227.817 127.099 228.547 128.001 228.547C128.903 228.547 129.63 227.817 129.63 226.91V208.021C129.63 207.114 128.903 206.384 128.001 206.384ZM98.1066 212.487C97.4741 212.541 96.9065 212.967 96.6974 213.614L94.2549 221.17C93.9759 222.033 94.4421 222.954 95.3 223.234C96.1581 223.515 97.0735 223.045 97.3524 222.182L99.7949 214.627C100.074 213.764 99.6076 212.844 98.7497 212.563C98.5354 212.493 98.3174 212.469 98.1066 212.487ZM157.883 212.491C157.672 212.472 157.455 212.495 157.24 212.566C156.382 212.847 155.915 213.767 156.194 214.63L158.636 222.187C158.915 223.049 159.83 223.518 160.688 223.237C161.546 222.957 162.013 222.037 161.734 221.174L159.292 213.618C159.082 212.971 158.516 212.545 157.883 212.491ZM117.779 216.7C117.023 216.773 116.401 217.369 116.319 218.159L115.493 226.061C115.398 226.963 116.045 227.765 116.942 227.86C117.84 227.955 118.638 227.305 118.732 226.403L119.558 218.501C119.653 217.599 119.006 216.796 118.109 216.701C117.997 216.69 117.887 216.69 117.779 216.7ZM138.158 216.708C138.05 216.696 137.939 216.696 137.827 216.709C136.93 216.803 136.283 217.605 136.376 218.508L137.197 226.41C137.291 227.313 138.089 227.963 138.986 227.868C139.884 227.774 140.531 226.972 140.437 226.07L139.617 218.168C139.535 217.378 138.914 216.781 138.158 216.708Z" fill="#F4F2F3"/>
<g opacity="0.409" filter="url(#filter1_f_741_14)">
<path d="M204.329 56.584L115.227 108.637L58.8906 197.815L141.306 136.434L204.329 56.584Z" fill="black"/>
</g>
<path d="M140.77 135.533L115.23 108.64L205.829 47.3594L140.77 135.533Z" fill="#FF5150"/>
<path d="M140.77 135.532L115.231 108.639L50.1719 196.812L140.77 135.532Z" fill="#F1F1F1"/>
<path opacity="0.243" d="M50.1719 196.814L140.77 135.533L205.829 47.3594L50.1719 196.814Z" fill="black"/>
<defs>
<filter id="filter0_f_741_14" x="2.29647" y="10.068" width="251.415" height="243.999" filterUnits="userSpaceOnUse" color-interpolation-filters="sRGB">
<feFlood flood-opacity="0" result="BackgroundImageFix"/>
<feBlend mode="normal" in="SourceGraphic" in2="BackgroundImageFix" result="shape"/>
<feGaussianBlur stdDeviation="4.47676" result="effect1_foregroundBlur_741_14"/>
</filter>
<filter id="filter1_f_741_14" x="56.3458" y="54.0391" width="150.527" height="146.32" filterUnits="userSpaceOnUse" color-interpolation-filters="sRGB">
<feFlood flood-opacity="0" result="BackgroundImageFix"/>
<feBlend mode="normal" in="SourceGraphic" in2="BackgroundImageFix" result="shape"/>
<feGaussianBlur stdDeviation="1.27242" result="effect1_foregroundBlur_741_14"/>
</filter>
<linearGradient id="paint0_linear_741_14" x1="127.996" y1="243.95" x2="127.996" y2="0.220064" gradientUnits="userSpaceOnUse">
<stop stop-color="#BDBDBD"/>
<stop offset="1" stop-color="white"/>
</linearGradient>
<radialGradient id="paint1_radial_741_14" cx="0" cy="0" r="1" gradientUnits="userSpaceOnUse" gradientTransform="translate(128.503 105.709) scale(121.199 121.866)">
<stop stop-color="#06C2E7"/>
<stop offset="0.25" stop-color="#0DB8EC"/>
<stop offset="0.5" stop-color="#12AEF1"/>
<stop offset="0.75" stop-color="#1F86F9"/>
<stop offset="1" stop-color="#107DDD"/>
</radialGradient>
</defs>
</svg>
