<svg width="256" height="256" viewBox="0 0 256 256" fill="none" xmlns="http://www.w3.org/2000/svg">
<g clip-path="url(#clip0_741_67)">
<path d="M253.661 89.8334C250.494 66.0509 242.081 44.5012 227.282 28.7154C211.496 13.9162 189.947 5.504 166.164 2.33646C143.472 -0.675306 127.998 0.0516714 127.998 0.0516714C127.998 0.0516714 112.524 -0.675306 89.8315 2.33646C66.0489 5.504 44.4992 13.9162 28.7653 28.7154C13.9142 44.5012 5.50205 66.0509 2.33451 89.8334C-0.677259 112.525 0.0497183 128 0.0497183 128C0.0497183 128 -0.677259 143.474 2.33451 166.166C5.50205 189.949 13.9142 211.498 28.7134 227.284C44.4992 242.135 66.0489 250.547 89.7795 253.715C112.472 256.727 127.946 256 127.946 256C127.946 256 143.42 256.727 166.112 253.715C189.895 250.547 211.444 242.135 227.178 227.284C242.029 211.498 250.442 189.949 253.557 166.166C256.569 143.474 255.842 128 255.842 128C255.842 128 256.673 112.525 253.661 89.8334Z" fill="#7882FF"/>
<path d="M193.532 109.048C203.658 145.397 182.368 183.096 146.019 193.221C109.67 203.347 71.9709 182.057 61.8451 145.708C51.7194 109.359 73.0095 71.6604 109.358 61.5346C145.707 51.4088 183.406 72.6989 193.532 109.048Z" fill="white"/>
<path d="M193.53 109.047C197.321 122.704 196.698 136.516 192.544 148.979C192.232 149.965 191.869 151.004 191.453 151.99" fill="white"/>
<path d="M192.441 109.047C195.09 118.601 195.609 128.26 194.207 137.451L192.441 109.047Z" fill="white"/>
<path d="M173.384 175.357C156.092 175.357 135.062 170.943 114.083 162.998C93.1046 155.053 74.4628 144.356 61.533 132.881C40.5545 114.239 41.8527 99.8031 44.501 92.8449C47.1493 85.8867 55.7691 74.2031 83.8097 74.2031C101.101 74.2031 122.132 78.6169 143.11 86.5617C164.089 94.5066 182.731 105.204 195.66 116.679C216.639 135.321 215.341 149.757 212.692 156.715C210.096 163.673 201.476 175.357 173.384 175.357ZM83.8616 95.8567C70.8799 95.8567 65.3237 99.0762 64.7525 100.53C64.1813 101.984 66.2584 108.111 75.9687 116.731C86.8215 126.338 103.542 135.892 121.82 142.799C140.099 149.757 158.948 153.755 173.436 153.755C186.417 153.755 191.974 150.536 192.545 149.082C193.116 147.628 191.039 141.5 181.38 132.881C170.528 123.274 153.807 113.72 135.529 106.813C117.147 99.8551 98.3493 95.8567 83.8616 95.8567Z" fill="#4D5CC1"/>
<path d="M64.75 100.739L192.438 149.239C196.696 136.673 197.372 122.757 193.529 109.048C183.403 72.6989 145.756 51.4088 109.355 61.5346C88.4806 67.3504 72.591 82.2535 64.75 100.739Z" fill="white"/>
</g>
<defs>
<clipPath id="clip0_741_67">
<rect width="256" height="256" fill="white"/>
</clipPath>
</defs>
</svg>
