<svg width="24" height="24" viewBox="0 0 24 24" fill="none" xmlns="http://www.w3.org/2000/svg">
<g clip-path="url(#clip0_601_18)">
<path d="M0 0H24V24H0V0Z" fill="#F7DF1E"/>
<path d="M6.30869 20.0555L8.14525 18.944C8.49963 19.5722 8.82194 20.1037 9.59509 20.1037C10.3362 20.1037 10.8035 19.8139 10.8035 18.6862V11.0177H13.0589V18.7181C13.0589 21.0541 11.6896 22.1174 9.69175 22.1174C7.88753 22.1174 6.84025 21.183 6.30859 20.0553M14.2839 19.8138L16.1203 18.7505C16.6037 19.54 17.2321 20.12 18.3436 20.12C19.2782 20.12 19.874 19.6527 19.874 19.0083C19.874 18.235 19.2618 17.9611 18.2308 17.5101L17.6671 17.2683C16.0398 16.5757 14.9605 15.7057 14.9605 13.8692C14.9605 12.1775 16.2493 10.8887 18.2631 10.8887C19.6969 10.8887 20.728 11.3882 21.469 12.6931L19.7129 13.8209C19.3262 13.1282 18.9075 12.8543 18.263 12.8543C17.6025 12.8543 17.1836 13.2732 17.1836 13.8209C17.1836 14.4975 17.6025 14.7715 18.569 15.1904L19.1328 15.432C21.05 16.2537 22.1294 17.0914 22.1294 18.9761C22.1294 21.0062 20.5345 22.1177 18.3918 22.1177C16.2976 22.1177 14.9443 21.1189 14.2838 19.8139" fill="black"/>
</g>
<defs>
<clipPath id="clip0_601_18">
<rect width="24" height="24" fill="white"/>
</clipPath>
</defs>
</svg>
