<svg width="25" height="24" viewBox="0 0 25 24" fill="none" xmlns="http://www.w3.org/2000/svg">
<g clip-path="url(#clip0_601_12)">
<path d="M11.947 0.00585938C5.84518 0.00585938 6.22617 2.65198 6.22617 2.65198L6.23294 5.39344H12.0558V6.21649H3.92019C3.92019 6.21649 0.015625 5.77367 0.015625 11.9304C0.015625 18.0873 3.42362 17.8689 3.42362 17.8689H5.45751V15.0119C5.45751 15.0119 5.34786 11.6039 8.81111 11.6039H14.5864C14.5864 11.6039 17.8311 11.6563 17.8311 8.46798V3.19626C17.8311 3.19626 18.3239 0.00585938 11.947 0.00585938ZM8.73628 1.84944C8.87388 1.84931 9.01015 1.87632 9.1373 1.92892C9.26445 1.98152 9.37998 2.05868 9.47728 2.15597C9.57457 2.25327 9.65173 2.3688 9.70433 2.49595C9.75693 2.62309 9.78394 2.75937 9.78381 2.89697C9.78394 3.03456 9.75693 3.17084 9.70433 3.29798C9.65173 3.42513 9.57457 3.54066 9.47728 3.63796C9.37998 3.73525 9.26445 3.81241 9.1373 3.86501C9.01015 3.91761 8.87388 3.94462 8.73628 3.94449C8.59869 3.94462 8.46241 3.91761 8.33527 3.86501C8.20812 3.81241 8.09259 3.73525 7.99529 3.63796C7.898 3.54066 7.82084 3.42513 7.76824 3.29798C7.71564 3.17084 7.68863 3.03456 7.68875 2.89697C7.68863 2.75937 7.71564 2.62309 7.76824 2.49595C7.82084 2.3688 7.898 2.25327 7.99529 2.15597C8.09259 2.05868 8.20812 1.98152 8.33527 1.92892C8.46241 1.87632 8.59869 1.84931 8.73628 1.84944Z" fill="url(#paint0_linear_601_12)"/>
<path d="M12.1195 23.9187C18.2214 23.9187 17.8404 21.2726 17.8404 21.2726L17.8336 18.5312H12.0106V17.7082H20.1463C20.1463 17.7082 24.0508 18.151 24.0508 11.9941C24.0508 5.83729 20.6428 6.05565 20.6428 6.05565H18.6089V8.91259C18.6089 8.91259 18.7186 12.3206 15.2553 12.3206H9.4801C9.4801 12.3206 6.23539 12.2682 6.23539 15.4566V20.7284C6.23539 20.7284 5.74268 23.9187 12.1194 23.9187H12.1195ZM15.3303 22.0753C15.1927 22.0754 15.0564 22.0484 14.9292 21.9958C14.8021 21.9432 14.6866 21.8661 14.5893 21.7688C14.492 21.6715 14.4148 21.556 14.3622 21.4288C14.3096 21.3017 14.2826 21.1654 14.2827 21.0278C14.2826 20.8902 14.3096 20.7539 14.3622 20.6267C14.4148 20.4996 14.4919 20.384 14.5892 20.2867C14.6865 20.1894 14.8021 20.1123 14.9292 20.0597C15.0564 20.0071 15.1927 19.98 15.3303 19.9802C15.4679 19.98 15.6041 20.007 15.7313 20.0596C15.8584 20.1122 15.974 20.1894 16.0713 20.2867C16.1685 20.384 16.2457 20.4995 16.2983 20.6267C16.3509 20.7538 16.3779 20.8901 16.3778 21.0277C16.3779 21.1653 16.3509 21.3016 16.2983 21.4287C16.2457 21.5559 16.1685 21.6714 16.0713 21.7687C15.974 21.866 15.8584 21.9431 15.7313 21.9957C15.6041 22.0483 15.4679 22.0754 15.3303 22.0753Z" fill="url(#paint1_linear_601_12)"/>
</g>
<defs>
<linearGradient id="paint0_linear_601_12" x1="231" y1="215.071" x2="1422.15" y2="1394.34" gradientUnits="userSpaceOnUse">
<stop stop-color="#387EB8"/>
<stop offset="1" stop-color="#366994"/>
</linearGradient>
<linearGradient id="paint1_linear_601_12" x1="347.169" y1="373.678" x2="1626.33" y2="1582.91" gradientUnits="userSpaceOnUse">
<stop stop-color="#FFE052"/>
<stop offset="1" stop-color="#FFC331"/>
</linearGradient>
<clipPath id="clip0_601_12">
<rect width="24.1" height="24" fill="white"/>
</clipPath>
</defs>
</svg>
