<svg width="24" height="24" viewBox="0 0 24 24" fill="none" xmlns="http://www.w3.org/2000/svg">
<g clip-path="url(#clip0_601_15)">
<path d="M4.25 8.8125H22.9381V22.6256H4.25V8.8125Z" fill="white"/>
<path d="M0.28125 11.9824V23.7012H23.7188V0.263672H0.28125V11.9824ZM19.1681 11.0449C19.7295 11.1752 20.2397 11.4688 20.6344 11.8887C20.8517 12.1149 21.0406 12.3667 21.1969 12.6387C21.1969 12.6687 20.1844 13.353 19.5675 13.7355C19.545 13.7505 19.455 13.653 19.3556 13.5049C19.243 13.3106 19.083 13.148 18.8905 13.0323C18.6981 12.9165 18.4794 12.8514 18.255 12.843C17.5444 12.7943 17.0869 13.1674 17.0906 13.7805C17.0847 13.9332 17.1197 14.0847 17.1919 14.2193C17.3475 14.5437 17.6381 14.7368 18.5494 15.1305C20.2275 15.8524 20.9456 16.3287 21.3919 17.0055C21.8906 17.7555 22.0013 18.9668 21.6638 19.863C21.2888 20.838 20.37 21.4999 19.0706 21.7193C18.4772 21.7873 17.8775 21.781 17.2856 21.7005C16.3784 21.551 15.5428 21.1154 14.9006 20.4574C14.685 20.2193 14.265 19.5987 14.2913 19.5537C14.3597 19.5029 14.4318 19.4571 14.5069 19.4168L15.375 18.9368L16.0481 18.5468L16.1887 18.7549C16.4261 19.0944 16.7281 19.3837 17.0775 19.6062C17.8275 19.9999 18.8512 19.9455 19.3575 19.4899C19.5275 19.323 19.6335 19.1017 19.6572 18.8646C19.6808 18.6275 19.6205 18.3897 19.4869 18.1924C19.2994 17.9318 18.9244 17.7124 17.8762 17.2549C16.6669 16.7337 16.1456 16.4112 15.6694 15.8974C15.3721 15.5584 15.1526 15.1584 15.0262 14.7255C14.932 14.231 14.9181 13.7245 14.985 13.2255C15.2344 12.0574 16.11 11.2418 17.3887 10.9999C17.981 10.9266 18.5808 10.9431 19.1681 11.0487V11.0449ZM13.6669 12.0274V12.9874H10.6237V21.6555H8.46563V12.9855H5.415V12.048C5.4055 11.7248 5.41301 11.4012 5.4375 11.0787C5.4525 11.0618 7.3125 11.0618 9.5625 11.0618H13.6556L13.6669 12.0274Z" fill="#007ACC"/>
</g>
<defs>
<clipPath id="clip0_601_15">
<rect width="24" height="24" fill="white"/>
</clipPath>
</defs>
</svg>
