<svg width="25" height="24" viewBox="0 0 25 24" fill="none" xmlns="http://www.w3.org/2000/svg">
<path d="M21.6084 3.48711L20.6146 2.49336C20.5771 2.45586 20.5302 2.43945 20.481 2.43945C20.4318 2.43945 20.3849 2.4582 20.3474 2.49336L18.5638 4.27695C17.7885 3.75161 16.8731 3.47152 15.9365 3.47305C14.7365 3.47305 13.5365 3.93008 12.6201 4.84648L10.2318 7.23477C10.1969 7.27001 10.1773 7.31759 10.1773 7.36719C10.1773 7.41678 10.1969 7.46437 10.2318 7.49961L16.5998 13.8676C16.6373 13.9051 16.6842 13.9215 16.7334 13.9215C16.7803 13.9215 16.8295 13.9027 16.867 13.8676L19.2552 11.4793C20.8701 9.86211 21.0599 7.36133 19.8248 5.53789L21.6084 3.7543C21.681 3.6793 21.681 3.55977 21.6084 3.48711ZM18.1256 10.352L16.7334 11.7441L12.3553 7.36602L13.7474 5.97383C14.331 5.39023 15.1092 5.0668 15.9365 5.0668C16.7638 5.0668 17.5396 5.38789 18.1256 5.97383C18.7092 6.55742 19.0326 7.33555 19.0326 8.16289C19.0326 8.99023 18.7092 9.76602 18.1256 10.352ZM13.6678 12.8129C13.6325 12.778 13.5849 12.7584 13.5353 12.7584C13.4857 12.7584 13.4381 12.778 13.4029 12.8129L11.842 14.3738L9.72556 12.2574L11.2888 10.6941C11.3615 10.6215 11.3615 10.502 11.2888 10.4293L10.4357 9.57617C10.4005 9.54128 10.3529 9.5217 10.3033 9.5217C10.2537 9.5217 10.2061 9.54128 10.1709 9.57617L8.60759 11.1395L7.59978 10.1316C7.58229 10.1141 7.56143 10.1003 7.53848 10.0911C7.51552 10.0818 7.49094 10.0773 7.46619 10.0777C7.41931 10.0777 7.37009 10.0965 7.33259 10.1316L4.94666 12.5199C3.33181 14.1371 3.14197 16.6379 4.37713 18.4613L2.59353 20.2449C2.55864 20.2802 2.53906 20.3278 2.53906 20.3773C2.53906 20.4269 2.55864 20.4745 2.59353 20.5098L3.58728 21.5035C3.62478 21.541 3.67166 21.5574 3.72088 21.5574C3.77009 21.5574 3.81697 21.5387 3.85447 21.5035L5.63806 19.7199C6.42791 20.2566 7.34666 20.5238 8.26541 20.5238C9.46541 20.5238 10.6654 20.0668 11.5818 19.1504L13.9701 16.7621C14.0427 16.6895 14.0427 16.5699 13.9701 16.4973L12.9623 15.4895L14.5256 13.9262C14.5982 13.8535 14.5982 13.734 14.5256 13.6613L13.6678 12.8129ZM10.4521 18.0254C10.1653 18.3137 9.82412 18.5423 9.44838 18.698C9.07264 18.8537 8.66978 18.9334 8.26306 18.9324C7.43572 18.9324 6.65994 18.6113 6.074 18.0254C5.78568 17.7385 5.55706 17.3974 5.40138 17.0216C5.24569 16.6459 5.16602 16.243 5.16697 15.8363C5.16697 15.009 5.48806 14.2332 6.074 13.6473L7.46619 12.2551L11.8443 16.6332L10.4521 18.0254Z" fill="black"/>
</svg>
