<svg width="24" height="24" viewBox="0 0 24 24" fill="none" xmlns="http://www.w3.org/2000/svg">
<g clip-path="url(#clip0_613_12)">
<path d="M0.0276562 11.1935C2.35397 16.5376 8.25684 17.4338 15.3019 12.904C18.5513 15.9115 19.3608 19.4768 16.6494 23.0658C15.2195 23.6673 13.6487 24 12 24C5.37262 24 0 18.6274 0 12C0 11.7291 0.0099375 11.4601 0.0276562 11.1935ZM11.0018 8.87372C12.0524 4.49606 14.9858 1.98497 19.5967 2.71088C22.2845 4.91156 24.0001 8.25525 24.0001 12C24.0001 16.7245 21.2694 20.8105 17.3007 22.7678C20.906 17.6318 17.9598 12.2131 11.0018 8.87372ZM12.0001 0C14.5721 0 16.9548 0.809531 18.9083 2.18719C12.3503 1.42481 9.2535 6.89109 9.68606 14.4398C5.42494 15.7467 1.95356 14.7837 0.119062 10.3103C0.940313 4.48303 5.94628 0 12 0H12.0001Z" fill="#662D91"/>
</g>
<defs>
<clipPath id="clip0_613_12">
<rect width="24" height="24" fill="white"/>
</clipPath>
</defs>
</svg>
