<svg width="24" height="24" viewBox="0 0 24 24" fill="none" xmlns="http://www.w3.org/2000/svg">
<path d="M2.18187 2.55739C2.00298 2.55559 1.83068 2.62488 1.70285 2.75005C1.57502 2.87521 1.5021 3.046 1.50012 3.22489C1.49934 3.26384 1.50235 3.30277 1.50912 3.34114L4.36512 20.6759C4.40073 20.888 4.50993 21.0808 4.67356 21.2205C4.83719 21.3601 5.04478 21.4376 5.25987 21.4394H18.9616C19.1232 21.4415 19.2802 21.3856 19.404 21.2819C19.5279 21.1781 19.6104 21.0333 19.6366 20.8739L22.4904 3.34039C22.5193 3.16443 22.4773 2.98418 22.3738 2.83902C22.2702 2.69386 22.1134 2.59558 21.9376 2.56564C21.9012 2.55967 21.8643 2.55666 21.8274 2.55664L2.18187 2.55739ZM14.2081 15.0891H9.83487L8.65062 8.90614H15.2679L14.2081 15.0891Z" fill="#2684FF"/>
<path d="M21.5829 8.90625H15.2686L14.2089 15.0893H9.83562L4.67188 21.2257C4.83494 21.3687 5.0438 21.4485 5.26062 21.4508H18.9661C19.1277 21.4529 19.2847 21.397 19.4085 21.2932C19.5324 21.1895 19.6149 21.0447 19.6411 20.8853L21.5829 8.90625Z" fill="url(#paint0_linear_714_7)"/>
<defs>
<linearGradient id="paint0_linear_714_7" x1="22.7417" y1="10.4051" x2="12.3086" y2="18.5496" gradientUnits="userSpaceOnUse">
<stop offset="0.18" stop-color="#0052CC"/>
<stop offset="1" stop-color="#2684FF"/>
</linearGradient>
</defs>
</svg>
