<svg width="32" height="32" viewBox="0 0 32 32" fill="none" xmlns="http://www.w3.org/2000/svg">
<path d="M13.3333 8V10.6667H6.66667V25.3333H21.3333V18.6667H24V26.6667C24 27.0203 23.8595 27.3594 23.6095 27.6095C23.3594 27.8595 23.0203 28 22.6667 28H5.33333C4.97971 28 4.64057 27.8595 4.39052 27.6095C4.14048 27.3594 4 27.0203 4 26.6667V9.33333C4 8.97971 4.14048 8.64057 4.39052 8.39052C4.64057 8.14048 4.97971 8 5.33333 8H13.3333ZM28 4V14.6667H25.3333V8.55067L14.9427 18.9427L13.0573 17.0573L23.4467 6.66667H17.3333V4H28Z" fill="black" fill-opacity="0.3"/>
</svg>
