<svg width="24" height="24" viewBox="0 0 24 24" fill="none" xmlns="http://www.w3.org/2000/svg">
<g clip-path="url(#clip0_621_7)">
<path d="M24 12C24 18.6273 18.6273 24 12 24C5.37333 24 0 18.6273 0 12C0 5.37333 5.37333 0 12 0C18.6273 0 24 5.37333 24 12Z" fill="#BFBFBF"/>
<path d="M11.5414 11.7414C11.4841 11.6953 11.4131 11.6694 11.3396 11.6677C11.2661 11.666 11.1941 11.6887 11.1347 11.7321C11.1267 11.7381 10.2947 12.3334 8.6667 12.3334C7.03937 12.3334 6.2067 11.7381 6.20003 11.7334C6.141 11.6891 6.06894 11.6657 5.99515 11.6668C5.92136 11.6678 5.85001 11.6934 5.79228 11.7393C5.73456 11.7853 5.69373 11.8492 5.67619 11.9208C5.65865 11.9925 5.66539 12.068 5.69537 12.1354C5.73537 12.2254 6.69537 14.3334 8.6667 14.3334C10.6387 14.3334 11.598 12.2254 11.638 12.1354C11.6677 12.0683 11.6744 11.9932 11.6569 11.922C11.6394 11.8507 11.5988 11.7872 11.5414 11.7414ZM18.208 11.7414C18.1508 11.6952 18.0798 11.6692 18.0063 11.6675C17.9327 11.6659 17.8607 11.6886 17.8014 11.7321C17.7934 11.7381 16.9607 12.3334 15.3334 12.3334C13.7067 12.3334 12.8734 11.7381 12.8667 11.7334C12.8077 11.6891 12.7356 11.6657 12.6618 11.6668C12.588 11.6678 12.5167 11.6934 12.459 11.7393C12.4012 11.7853 12.3604 11.8492 12.3429 11.9208C12.3253 11.9925 12.3321 12.068 12.362 12.1354C12.402 12.2254 13.362 14.3334 15.3334 14.3334C17.3054 14.3334 18.2647 12.2254 18.3047 12.1354C18.3344 12.0683 18.341 11.9932 18.3235 11.922C18.3061 11.8507 18.2654 11.7872 18.208 11.7414ZM14.6667 18.6668H9.33337C9.15655 18.6668 8.98699 18.5965 8.86196 18.4715C8.73694 18.3465 8.6667 18.1769 8.6667 18.0001C8.6667 17.8233 8.73694 17.6537 8.86196 17.5287C8.98699 17.4037 9.15655 17.3334 9.33337 17.3334H14.6667C14.8435 17.3334 15.0131 17.4037 15.1381 17.5287C15.2631 17.6537 15.3334 17.8233 15.3334 18.0001C15.3334 18.1769 15.2631 18.3465 15.1381 18.4715C15.0131 18.5965 14.8435 18.6668 14.6667 18.6668ZM4.00003 9.33344C3.91248 9.33361 3.82576 9.31654 3.74481 9.2832C3.66386 9.24986 3.59027 9.2009 3.52824 9.13912C3.40296 9.01435 3.33239 8.84492 3.33203 8.66811C3.33168 8.49129 3.40158 8.32158 3.52635 8.19631C3.65113 8.07104 3.82055 8.00046 3.99737 8.00011C4.10137 7.99877 6.3767 7.94277 8.13403 5.60011C8.24012 5.45866 8.39805 5.36514 8.57309 5.34014C8.74812 5.31513 8.92592 5.36069 9.06737 5.46677C9.20881 5.57286 9.30233 5.73079 9.32733 5.90582C9.35234 6.08086 9.30679 6.25866 9.2007 6.40011C7.02537 9.30011 4.1227 9.33344 4.00003 9.33344ZM20 9.33344C19.8774 9.33344 16.9754 9.30011 14.8 6.40011C14.7445 6.33036 14.7036 6.25018 14.6796 6.16433C14.6556 6.07848 14.6491 5.9887 14.6605 5.90029C14.6718 5.81187 14.7007 5.72663 14.7456 5.6496C14.7904 5.57257 14.8503 5.50532 14.9216 5.45181C14.9928 5.39831 15.0741 5.35965 15.1606 5.33811C15.2471 5.31658 15.3371 5.3126 15.4251 5.32643C15.5132 5.34025 15.5976 5.3716 15.6733 5.4186C15.749 5.46561 15.8146 5.52733 15.866 5.60011C17.6267 7.94744 19.9067 7.99944 20.0034 8.00011C20.37 8.00411 20.666 8.30411 20.664 8.67011C20.6639 8.84609 20.5938 9.01481 20.4693 9.13919C20.3448 9.26357 20.176 9.33344 20 9.33344Z" fill="#664500"/>
</g>
<defs>
<clipPath id="clip0_621_7">
<rect width="24" height="24" fill="white"/>
</clipPath>
</defs>
</svg>
