<svg width="64" height="64" viewBox="0 0 64 64" fill="none" xmlns="http://www.w3.org/2000/svg">
<g clip-path="url(#clip0_108_2)">
<path d="M58 64H6C2.7 64 0 61.3 0 58V6C0 2.7 2.7 0 6 0H58C61.3 0 64 2.7 64 6V58C64 61.3 61.3 64 58 64Z" fill="#DFDFDF"/>
<path d="M62.2417 1.75977L1.76172 62.2398C2.85172 63.3248 4.35172 63.9998 6.00172 63.9998H58.0017C61.3017 63.9998 64.0017 61.2998 64.0017 57.9998V5.99977C64.0017 4.34977 63.3267 2.84977 62.2417 1.75977Z" fill="#AFAFAF"/>
<path d="M56.0003 50.4992C56.0003 53.8142 53.3153 56.4992 50.0003 56.4992H13.9453C10.6453 56.4992 7.94531 53.7992 7.94531 50.4992V14.4492C7.94531 11.1492 10.6453 8.44922 13.9453 8.44922H50.0003C53.3153 8.44922 56.0003 11.1342 56.0003 14.4492V50.4992Z" fill="#CFCFCF"/>
</g>
<defs>
<clipPath id="clip0_108_2">
<rect width="64" height="64" fill="white"/>
</clipPath>
</defs>
</svg>
