<svg width="32" height="32" viewBox="0 0 32 32" fill="none" xmlns="http://www.w3.org/2000/svg">
<path d="M26.2667 23.4662C26.1333 23.1995 26 22.9329 26 22.6662C26 22.1329 25.7333 21.7329 25.3333 21.3329C25.2 21.1995 24.9333 21.0662 24.8 21.0662C25.6 18.6662 24.4 16.2662 23.0667 14.5329C22 12.9329 20.4 11.7329 20.5333 9.59954C20.5333 7.0662 20.8 2.39954 16.1333 2.79954C11.3333 3.0662 12.6667 7.99954 12.5333 9.73287C12.5333 11.1995 11.8667 12.6662 10.8 13.8662C10.5333 14.1329 10.2667 14.5329 10.1333 14.7995C8.8 16.3995 8.13333 18.5329 8.13333 20.5329C7.86667 20.7995 7.6 21.0662 7.46667 21.3329C7.33333 21.4662 7.2 21.5995 7.2 21.7329C7.06667 21.8662 6.8 21.9995 6.53333 22.1329C6 22.2662 5.6 22.5329 5.33333 23.0662C5.2 23.4662 5.06667 23.9995 5.2 24.5329C5.33333 24.7995 5.33333 25.0662 5.2 25.4662C4.93333 25.9995 4.93333 26.6662 5.2 27.3329C5.6 27.8662 6.26667 27.9995 7.2 28.1329C7.86667 28.1329 8.66667 28.3995 9.33333 28.6662C10 29.0662 10.8 29.3329 11.6 29.3329C12 29.3329 12.5333 29.1995 12.9333 29.0662C13.3333 28.7995 13.6 28.5329 13.7333 28.1329C14.2667 28.1329 15.0667 27.8662 16 27.8662C16.8 27.8662 17.6 28.1329 18.6667 27.9995C18.6667 28.1329 18.6667 28.2662 18.8 28.3995C19.0667 29.0662 19.7333 29.5995 20.5333 29.7329H20.8C21.8667 29.5995 22.9333 29.0662 23.6 28.2662C24.1333 27.7329 24.8 27.3329 25.4667 27.0662C26.2667 26.6662 26.8 26.3995 26.9333 25.7329C27.0667 24.7995 26.8 24.2662 26.2667 23.4662ZM17.0667 6.39954C17.8667 6.53287 18.5333 7.19954 18.4 7.99954C18.4 8.39954 18.2667 8.79954 18 9.19954H17.8667C17.6 9.0662 17.4667 9.0662 17.3333 8.93287C17.4667 8.79954 17.4667 8.53287 17.6 8.2662C17.6 7.73287 17.3333 7.33287 17.0667 7.33287C16.6667 7.33287 16.4 7.73287 16.4 8.2662V8.39954C16.2667 8.2662 16 8.2662 15.8667 8.13287V7.99954C15.7333 7.33287 16.2667 6.53287 17.0667 6.39954ZM16.6667 9.0662C16.8 9.19954 17.0667 9.33287 17.2 9.33287C17.3333 9.33287 17.6 9.4662 17.7333 9.59954C18 9.73287 18.2667 9.8662 18.2667 10.2662C18.2667 10.6662 17.8667 11.0662 17.0667 11.3329C16.8 11.4662 16.6667 11.4662 16.5333 11.5995C16.1333 11.8662 15.7333 11.9995 15.2 11.9995C14.8 11.9995 14.4 11.7329 14.1333 11.4662C14 11.3329 13.8667 11.1995 13.6 11.0662C13.4667 10.9329 13.2 10.6662 13.0667 10.2662C13.0667 10.1329 13.2 9.99954 13.3333 9.8662C13.7333 9.59954 13.8667 9.4662 14 9.33287L14.1333 9.19954C14.4 8.79954 14.9333 8.53287 15.4667 8.53287C15.8667 8.6662 16.2667 8.79954 16.6667 9.0662ZM13.8667 6.6662C14.4 6.6662 14.8 7.19954 14.9333 8.13287V8.39954C14.8 8.39954 14.5333 8.53287 14.4 8.6662V8.39954C14.4 7.99954 14.1333 7.59954 13.8667 7.73287C13.6 7.73287 13.4667 8.13287 13.4667 8.53287C13.4667 8.79954 13.6 8.93287 13.7333 9.0662C13.7333 9.0662 13.6 9.19954 13.4667 9.19954C13.2 8.93287 12.9333 8.53287 12.9333 8.13287C12.9333 7.33287 13.3333 6.6662 13.8667 6.6662ZM12.5333 28.1329C11.6 28.5329 10.4 28.3995 9.6 27.8662C8.8 27.4662 8.13333 27.3329 7.2 27.3329C6.53333 27.1995 5.86667 27.1995 5.73333 26.9329C5.6 26.6662 5.6 26.2662 5.86667 25.5995C6 25.1995 6 24.7995 5.86667 24.3995C5.73333 23.9995 5.73333 23.7329 5.86667 23.3329C6 22.9329 6.26667 22.7995 6.66667 22.6662C7.06667 22.5329 7.33333 22.3995 7.6 22.1329C7.73333 21.9995 7.86667 21.8662 8 21.5995C8.4 21.0662 8.66667 20.7995 9.06667 20.7995C9.86667 20.9329 10.5333 22.1329 11.0667 23.3329C11.3333 23.7329 11.6 24.2662 12 24.6662C12.5333 25.3329 13.2 26.2662 13.2 26.7995C13.2 27.4662 12.9333 27.8662 12.5333 28.1329ZM19.0667 25.1995C19.0667 25.3329 19.0667 25.3329 18.9333 25.4662C17.3333 26.6662 15.2 26.7995 13.4667 25.8662L12.6667 24.6662C13.8667 24.5329 13.6 22.9329 11.0667 21.3329C8.4 19.5995 10.2667 16.3995 11.2 14.9329C11.3333 14.7995 11.3333 14.9329 10.8 15.9995C10.4 16.7995 9.6 18.7995 10.6667 20.2662C10.6667 19.1995 10.9333 18.1329 11.3333 17.0662C12.2667 15.3329 12.9333 13.3329 13.3333 11.3329C13.4667 11.4662 13.4667 11.4662 13.6 11.4662C13.7333 11.5995 13.8667 11.7329 14 11.7329C14.2667 12.1329 14.8 12.2662 15.2 12.2662H15.3333C15.8667 12.2662 16.4 12.1329 16.8 11.7329C16.9333 11.5995 17.0667 11.4662 17.3333 11.4662C17.7333 11.3329 18.1333 11.0662 18.5333 10.6662C19.0667 12.3995 19.6 13.9995 20.4 15.4662C20.9333 16.5329 21.3333 17.5995 21.6 18.7995C22 18.7995 22.5333 18.9329 22.9333 19.1995C24 19.7329 24.4 20.1329 24.2667 20.7995H24C24 20.3995 23.7333 19.9995 22.8 19.5995C21.8667 19.1995 21.0667 19.1995 20.8 20.1329C20.6667 20.1329 20.5333 20.2662 20.4 20.2662C19.3333 20.7995 19.3333 22.2662 19.2 23.7329C19.3333 24.2662 19.2 24.6662 19.0667 25.1995ZM25.2 25.9995C24.4 26.2662 23.7333 26.7995 23.2 27.4662C22.6667 28.2662 21.7333 28.7995 20.6667 28.6662C20.1333 28.6662 19.6 28.2662 19.4667 27.7329C19.3333 26.9329 19.3333 26.1329 19.7333 25.3329C19.8667 24.7995 20 24.3995 20.1333 23.8662C20.2667 22.2662 20.2667 21.3329 20.9333 20.9329C20.9333 21.5995 21.3333 21.9995 21.8667 22.2662C22.5333 22.2662 23.2 22.1329 23.7333 21.5995H24C24.4 21.5995 24.6667 21.5995 24.9333 21.8662C25.2 22.1329 25.3333 22.5329 25.3333 22.7995C25.3333 23.1995 25.6 23.5995 25.7333 23.9995C26.4 24.6662 26.4 25.0662 26.4 25.1995C26.2667 25.4662 25.7333 25.7329 25.2 25.9995ZM13.2 9.99954C13.0667 9.99954 13.0667 9.99954 13.0667 10.1329C13.0667 10.1329 13.0667 10.2662 13.2 10.2662C13.3333 10.2662 13.3333 10.3995 13.3333 10.3995C13.7333 10.9329 14.4 11.1995 15.2 11.3329C15.8667 11.1995 16.5333 11.0662 17.2 10.5329L18 10.1329C18.1333 10.1329 18.1333 9.99954 18.1333 9.99954C18.1333 9.8662 18.1333 9.8662 18 9.8662C17.7333 9.99954 17.3333 10.1329 17.0667 10.2662C16.5333 10.6662 15.8667 10.9329 15.2 10.9329C14.5333 10.9329 14 10.5329 13.6 10.1329C13.4667 10.1329 13.3333 9.99954 13.2 9.99954Z" fill="black"/>
</svg>
