<svg width="426" height="426" viewBox="0 0 426 426" fill="none" xmlns="http://www.w3.org/2000/svg">
<g clip-path="url(#clip0_116_80)">
<path d="M229.986 22L261 49.5L273.484 97.8066L286 72.5L390.5 217.5L280.5 402.5H238H223L177.5 303L81 310L71 308.5L60.5 296L35 266.311L108.5 208.5L114.984 195.307L121.484 161.807L229.986 108.307V22Z" fill="#222222"/>
<path d="M107.5 209L114.5 195.5L126.564 168.527L139.159 161.764L151.754 155L175.5 179L344 195.5L238 402.5H231L183 293.5L79.5 301.5L52.5 270L62.5 244L107.5 209Z" fill="white"/>
<path d="M235.84 42L251 98L235.84 105.5V42Z" fill="#D9D9D9"/>
<path d="M142.776 182.924L164.182 191.095L131.63 202.943L142.776 182.924Z" fill="#222222"/>
</g>
<defs>
<clipPath id="clip0_116_80">
<rect width="426" height="426" fill="white"/>
</clipPath>
</defs>
</svg>
