<svg width="147" height="64" viewBox="0 0 147 64" fill="none" xmlns="http://www.w3.org/2000/svg">
<mask id="mask0_199_2189" style="mask-type:luminance" maskUnits="userSpaceOnUse" x="5" y="5" width="55" height="55">
<path d="M59.3955 5.39575H5.39551V59.3957H59.3955V5.39575Z" fill="white"/>
</mask>
<g mask="url(#mask0_199_2189)">
<path d="M34.5486 8.18451L38.4799 11.6704L40.0624 17.7938L41.6489 14.5859L54.8954 32.9662L40.9518 56.4169H35.5644H33.663L27.8954 43.8042L15.663 44.6915L14.3954 44.5014L13.0644 42.9169L9.83203 39.1535L19.1489 31.8254L19.9708 30.153L20.7948 25.9065L34.5486 19.1248V8.18451Z" fill="#222222"/>
<path d="M19.0226 31.8887L19.9099 30.1774L21.4392 26.7583L23.0357 25.901L24.6323 25.0436L27.6423 28.0859L49.0015 30.1774L35.5649 56.4169H34.6775L28.593 42.6L15.4733 43.6141L12.0508 39.6211L13.3184 36.3253L19.0226 31.8887Z" fill="white"/>
<path d="M35.291 10.7197L37.2127 17.8183L35.291 18.769V10.7197Z" fill="#D9D9D9"/>
<path d="M23.4939 28.5834L26.2074 29.6191L22.0811 31.121L23.4939 28.5834Z" fill="#222222"/>
</g>
<path d="M71.0855 22.6958H82.7335L85.8535 25.8158V37.7758L82.7335 40.8958H71.0855V22.6958ZM80.9915 37.8798L82.3175 36.5538V27.0378L80.9915 25.7118H74.6215V37.8798H80.9915ZM88.5959 38.1918V30.6518L91.2739 27.9478H98.7099L101.388 30.6518V38.1918L98.7099 40.8958H91.2739L88.5959 38.1918ZM97.0459 38.0358L97.9559 37.1258V31.7178L97.0459 30.8078H92.9379L92.0279 31.7178V37.1258L92.9379 38.0358H97.0459ZM116.775 27.9478V43.8598L113.967 46.6418H106.921L104.503 44.2498V42.4818H107.935V43.2618L108.429 43.7818H112.459L113.343 42.8718V39.2058L111.549 40.8958H106.661L103.983 38.1918V30.6518L106.661 27.9478H111.757L113.603 29.7158V27.9478H116.775ZM113.343 32.4458L111.575 30.8598H108.403L107.415 31.8738V36.9698L108.403 37.9838H111.237L113.343 35.8258V32.4458ZM119.753 38.1658V27.9478H123.185V37.0998L124.069 37.9838H126.149L128.697 35.4358V27.9478H132.129V40.8958H128.957V38.6858L126.721 40.8958H122.483L119.753 38.1658Z" fill="black"/>
</svg>
