<svg width="24" height="24" viewBox="0 0 24 24" fill="none" xmlns="http://www.w3.org/2000/svg">
<g clip-path="url(#clip0_621_2)">
<path d="M24 12C24 18.6273 18.6273 24 12 24C5.37333 24 0 18.6273 0 12C0 5.37333 5.37333 0 12 0C18.6273 0 24 5.37333 24 12Z" fill="#FFCC4D"/>
<path d="M7.66667 13.3327C8.58714 13.3327 9.33333 12.288 9.33333 10.9993C9.33333 9.71068 8.58714 8.66602 7.66667 8.66602C6.74619 8.66602 6 9.71068 6 10.9993C6 12.288 6.74619 13.3327 7.66667 13.3327Z" fill="#664500"/>
<path d="M16.3346 13.3327C17.2551 13.3327 18.0013 12.288 18.0013 10.9993C18.0013 9.71068 17.2551 8.66602 16.3346 8.66602C15.4142 8.66602 14.668 9.71068 14.668 10.9993C14.668 12.288 15.4142 13.3327 16.3346 13.3327Z" fill="#664500"/>
<path d="M16.668 17.3333H7.33464C7.15782 17.3333 6.98826 17.2631 6.86323 17.1381C6.73821 17.013 6.66797 16.8435 6.66797 16.6667C6.66797 16.4899 6.73821 16.3203 6.86323 16.1953C6.98826 16.0702 7.15782 16 7.33464 16H16.668C16.8448 16 17.0143 16.0702 17.1394 16.1953C17.2644 16.3203 17.3346 16.4899 17.3346 16.6667C17.3346 16.8435 17.2644 17.013 17.1394 17.1381C17.0143 17.2631 16.8448 17.3333 16.668 17.3333Z" fill="#664500"/>
</g>
<defs>
<clipPath id="clip0_621_2">
<rect width="24" height="24" fill="white"/>
</clipPath>
</defs>
</svg>
