<svg width="32" height="32" viewBox="0 0 32 32" fill="none" xmlns="http://www.w3.org/2000/svg">
<g clip-path="url(#clip0_224_4)">
<path d="M16.4027 17.574V14.3914C16.4027 13.7434 16.7053 13.2794 17.352 13.2794H21.3387C21.3613 13.2794 21.3853 13.2554 21.3853 13.2314V12.598C21.3853 12.5927 21.3853 12.5874 21.3813 12.582H16.5013C15.4453 12.7154 14.928 13.4527 14.928 14.3914V17.5727C14.928 18.2154 14.6173 18.6807 13.9813 18.6807H9.776C9.752 18.6807 9.728 18.6967 9.728 18.7287V19.362C9.728 19.3887 9.74133 19.4087 9.75867 19.4154H14.5373C15.7813 19.382 16.3947 18.5887 16.3947 17.5687L16.4027 17.574ZM0.032 19.4194H1.432C1.44226 19.4148 1.45092 19.4073 1.45686 19.3978C1.4628 19.3883 1.46576 19.3772 1.46533 19.366V17.3394C1.46533 16.69 1.832 16.242 2.36667 16.242H8.13067C9.42933 16.242 10.0573 15.442 10.0573 14.3967C10.0573 13.4567 9.54267 12.7207 8.484 12.5874H0.008C0.008 12.5914 0 12.594 0 12.6007V13.234C0 13.266 0.0173333 13.282 0.0493333 13.282H7.64533C8.29067 13.282 8.59467 13.7487 8.59467 14.3927C8.59467 15.038 8.292 15.5074 7.64533 15.5074H1.63467C0.701333 15.5074 0 16.2967 0 17.338V19.3634C0 19.39 0.0133333 19.4114 0.0373333 19.4167L0.032 19.4194ZM21.3627 18.686H29.0133C29.036 18.686 29.0533 18.702 29.0533 18.718V19.362C29.0533 19.394 29.076 19.41 29.1 19.41H30.48C30.504 19.41 30.528 19.3967 30.528 19.362V18.7287C30.528 18.7047 30.5547 18.6807 30.5813 18.6807H31.952C31.984 18.6807 32 18.6567 32 18.6327V17.9874C32 17.9634 31.9867 17.9394 31.9533 17.9394H30.58C30.5533 17.9394 30.5307 17.9167 30.5307 17.8927V13.2807C30.5307 12.9034 30.392 12.6634 30.1573 12.5834H29.7573C29.6149 12.6223 29.4788 12.6816 29.3533 12.7594L21.1133 17.846C20.7933 18.046 20.6827 18.27 20.7627 18.4394C20.8267 18.578 21.0093 18.682 21.368 18.682L21.3627 18.686ZM22.556 17.8367L28.9427 13.8887C28.9827 13.8567 29.0627 13.8647 29.0627 13.9527V17.9007C29.0627 17.9247 29.0413 17.9487 29.0173 17.9487H22.5947C22.5413 17.9487 22.5147 17.9327 22.508 17.9167C22.5 17.8847 22.5147 17.8607 22.556 17.8367Z" fill="black"/>
</g>
<defs>
<clipPath id="clip0_224_4">
<rect width="32" height="32" fill="white"/>
</clipPath>
</defs>
</svg>
