<svg width="23" height="21" viewBox="0 0 23 21" fill="none" xmlns="http://www.w3.org/2000/svg">
<g clip-path="url(#clip0_832_11)">
<path d="M11.4992 12.2816C12.6314 12.2816 13.5492 11.3638 13.5492 10.2316C13.5492 9.09946 12.6314 8.18164 11.4992 8.18164C10.367 8.18164 9.44922 9.09946 9.44922 10.2316C9.44922 11.3638 10.367 12.2816 11.4992 12.2816Z" fill="#61DAFB"/>
<path d="M11.5 14.4322C17.5751 14.4322 22.5 12.5518 22.5 10.2322C22.5 7.91263 17.5751 6.03223 11.5 6.03223C5.42487 6.03223 0.5 7.91263 0.5 10.2322C0.5 12.5518 5.42487 14.4322 11.5 14.4322Z" stroke="#61DAFB"/>
<path d="M7.86211 12.3317C10.8997 17.593 14.9906 20.9178 16.9994 19.758C19.0082 18.5982 18.1743 13.393 15.1367 8.13175C12.0992 2.87053 8.00824 -0.454329 5.99941 0.705469C3.99058 1.86527 4.82454 7.07053 7.86211 12.3317Z" stroke="#61DAFB"/>
<path d="M7.86211 8.13194C4.82454 13.3932 3.99058 18.5984 5.99941 19.7582C8.00824 20.918 12.0992 17.5932 15.1367 12.3319C18.1743 7.07072 19.0082 1.86546 16.9994 0.705664C14.9906 -0.454134 10.8997 2.87072 7.86211 8.13194Z" stroke="#61DAFB"/>
</g>
<defs>
<clipPath id="clip0_832_11">
<rect width="23" height="20.4635" fill="white"/>
</clipPath>
</defs>
</svg>
