<svg width="32" height="32" viewBox="0 0 32 32" fill="none" xmlns="http://www.w3.org/2000/svg">
<path d="M4 4H6.66667V6.66667H4V4ZM9.33333 4H12V6.66667H9.33333V4ZM14.6667 4H17.3333V6.66667H14.6667V4ZM20 4H22.6667V6.66667H20V4ZM25.3333 4H28V6.66667H25.3333V4ZM25.3333 9.33333H28V12H25.3333V9.33333ZM4 25.3333H6.66667V28H4V25.3333ZM4 20H6.66667V22.6667H4V20ZM4 14.6667H6.66667V17.3333H4V14.6667ZM4 9.33333H6.66667V12H4V9.33333ZM14.2227 14.6667L15.604 12.5933C15.7258 12.4108 15.8908 12.2611 16.0843 12.1576C16.2778 12.0541 16.4939 12 16.7133 12H20.62C20.8395 12 21.0555 12.0541 21.249 12.1576C21.4426 12.2611 21.6075 12.4108 21.7293 12.5933L23.1107 14.6667H26.6667C27.0203 14.6667 27.3594 14.8071 27.6095 15.0572C27.8595 15.3072 28 15.6464 28 16V26.6667C28 27.0203 27.8595 27.3594 27.6095 27.6095C27.3594 27.8595 27.0203 28 26.6667 28H10.6667C10.313 28 9.97391 27.8595 9.72386 27.6095C9.47381 27.3594 9.33333 27.0203 9.33333 26.6667V16C9.33333 15.6464 9.47381 15.3072 9.72386 15.0572C9.97391 14.8071 10.313 14.6667 10.6667 14.6667H14.2227ZM12 25.3333H25.3333V17.3333H21.684L19.9067 14.6667H17.4267L15.6493 17.3333H12V25.3333ZM18.6667 24C17.9594 24 17.2811 23.719 16.781 23.219C16.281 22.7189 16 22.0406 16 21.3333C16 20.6261 16.281 19.9478 16.781 19.4477C17.2811 18.9476 17.9594 18.6667 18.6667 18.6667C19.3739 18.6667 20.0522 18.9476 20.5523 19.4477C21.0524 19.9478 21.3333 20.6261 21.3333 21.3333C21.3333 22.0406 21.0524 22.7189 20.5523 23.219C20.0522 23.719 19.3739 24 18.6667 24Z" fill="black"/>
</svg>
