<svg width="24" height="24" viewBox="0 0 24 24" fill="none" xmlns="http://www.w3.org/2000/svg">
<g clip-path="url(#clip0_621_10)">
<path d="M24 12C24 18.6273 18.6273 24 12 24C5.37333 24 0 18.6273 0 12C0 5.37333 5.37333 0 12 0C18.6273 0 24 5.37333 24 12Z" fill="#FFCC4D"/>
<path d="M19.3333 18.0007C21.1743 18.0007 22.6667 16.5083 22.6667 14.6673C22.6667 12.8264 21.1743 11.334 19.3333 11.334C17.4924 11.334 16 12.8264 16 14.6673C16 16.5083 17.4924 18.0007 19.3333 18.0007Z" fill="#FF7892"/>
<path d="M4.66536 18.0007C6.50631 18.0007 7.9987 16.5083 7.9987 14.6673C7.9987 12.8264 6.50631 11.334 4.66536 11.334C2.82442 11.334 1.33203 12.8264 1.33203 14.6673C1.33203 16.5083 2.82442 18.0007 4.66536 18.0007Z" fill="#FF7892"/>
<path d="M19.3341 9.33329C19.2466 9.33338 19.1599 9.31617 19.079 9.28265C18.9981 9.24913 18.9246 9.19995 18.8628 9.13796C17.1448 7.42129 14.1595 7.98062 14.1301 7.98729C14.0443 8.00454 13.9558 8.00464 13.8699 7.98757C13.784 7.9705 13.7024 7.93661 13.6296 7.88784C13.5569 7.83907 13.4945 7.77639 13.4461 7.70342C13.3976 7.63044 13.3641 7.5486 13.3475 7.46262C13.3129 7.28962 13.3485 7.10998 13.4464 6.9632C13.5443 6.81643 13.6965 6.71455 13.8695 6.67996C14.0208 6.64929 17.5781 5.96996 19.8048 8.19529C19.8983 8.28836 19.962 8.4071 19.988 8.53645C20.0139 8.66579 20.0008 8.79993 19.9504 8.92183C19.9 9.04373 19.8145 9.14792 19.7048 9.22117C19.5951 9.29443 19.4661 9.33345 19.3341 9.33329ZM4.66747 9.33329C4.5355 9.33358 4.40641 9.29466 4.29659 9.22145C4.18678 9.14825 4.10119 9.04407 4.05069 8.92214C4.00019 8.80021 3.98705 8.66602 4.01295 8.53661C4.03884 8.4072 4.10261 8.2884 4.19614 8.19529C6.4228 5.96796 9.98147 6.64996 10.1315 6.67996C10.3049 6.71452 10.4575 6.81658 10.5557 6.96367C10.654 7.11076 10.6897 7.29084 10.6551 7.46429C10.6206 7.63774 10.5185 7.79036 10.3714 7.88856C10.2243 7.98677 10.0443 8.02252 9.87081 7.98796C9.82481 7.97796 6.85147 7.42596 5.1388 9.13862C5.0137 9.26341 4.84417 9.33343 4.66747 9.33329ZM17.3341 12.6666C17.2466 12.6667 17.1599 12.6495 17.079 12.616C16.9981 12.5825 16.9246 12.5333 16.8628 12.4713C15.9935 11.6013 14.1361 11.822 13.4948 11.9806C13.3232 12.0233 13.1417 11.9961 12.9902 11.905C12.8386 11.8138 12.7295 11.6662 12.6868 11.4946C12.6441 11.323 12.6713 11.1415 12.7625 10.99C12.8536 10.8384 13.0012 10.7293 13.1728 10.6866C13.2968 10.656 16.2228 9.94596 17.8055 11.5286C17.899 11.6217 17.9628 11.7405 17.9887 11.8699C18.0146 11.9994 18.0014 12.1335 17.9509 12.2555C17.9004 12.3774 17.8148 12.4816 17.705 12.5548C17.5952 12.628 17.4661 12.6669 17.3341 12.6666ZM6.66747 12.6666C6.5355 12.6669 6.40641 12.628 6.29659 12.5548C6.18678 12.4816 6.10119 12.3774 6.05069 12.2555C6.00019 12.1335 5.98705 11.9994 6.01295 11.8699C6.03884 11.7405 6.10261 11.6217 6.19614 11.5286C7.77814 9.94662 10.7055 10.656 10.8295 10.6866C11.0011 10.7293 11.1487 10.8384 11.2398 10.99C11.331 11.1415 11.3582 11.323 11.3155 11.4946C11.2728 11.6662 11.1637 11.8138 11.0121 11.905C10.8606 11.9961 10.6791 12.0233 10.5075 11.9806C9.86481 11.8226 8.00814 11.6026 7.13947 12.4713C7.07748 12.5333 7.00389 12.5824 6.9229 12.6159C6.84191 12.6494 6.75512 12.6667 6.66747 12.6666Z" fill="#664500"/>
<path d="M8.66406 16.666C8.66406 16.666 9.33073 19.3327 11.9974 19.3327C14.6641 19.3327 15.3307 16.666 15.3307 16.666C15.3307 16.666 14.6641 17.3327 11.9974 17.3327C9.33073 17.3327 8.66406 16.666 8.66406 16.666Z" fill="#664500"/>
<path d="M11.9983 19.6668C9.10497 19.6668 8.34897 16.7768 8.34163 16.7475C8.3245 16.6776 8.3304 16.604 8.35847 16.5378C8.38653 16.4715 8.43525 16.416 8.49737 16.3797C8.55949 16.3434 8.63169 16.328 8.70321 16.3361C8.77474 16.3441 8.84176 16.375 8.8943 16.4242C8.9203 16.4468 9.60497 17.0002 11.9983 17.0002C14.4276 17.0002 15.0963 16.4302 15.103 16.4248C15.1567 16.3772 15.2241 16.3478 15.2955 16.3406C15.3669 16.3334 15.4388 16.3489 15.501 16.3848C15.5622 16.4207 15.6103 16.4753 15.638 16.5407C15.6658 16.606 15.6717 16.6785 15.655 16.7475C15.6476 16.7768 14.8916 19.6668 11.9983 19.6668ZM9.29763 17.3388C9.6823 18.0482 10.481 19.0002 11.9983 19.0002C13.5156 19.0002 14.315 18.0482 14.699 17.3388C14.1523 17.5108 13.2983 17.6668 11.9983 17.6668C10.6983 17.6668 9.8443 17.5108 9.29763 17.3388Z" fill="#664500"/>
</g>
<defs>
<clipPath id="clip0_621_10">
<rect width="24" height="24" fill="white"/>
</clipPath>
</defs>
</svg>
