<svg width="32" height="32" viewBox="0 0 32 32" fill="none" xmlns="http://www.w3.org/2000/svg">
<path d="M23.0723 28.02C24.6533 26.4433 25.9072 24.5698 26.7618 22.507C27.6164 20.4442 28.055 18.2328 28.0522 16C28.055 13.7672 27.6164 11.5558 26.7618 9.493C25.9072 7.4302 24.6533 5.55664 23.0723 3.97998L21.6562 5.39398C23.0513 6.78516 24.1576 8.43833 24.9117 10.2585C25.6658 12.0786 26.0527 14.0298 26.0502 16C26.0502 20.142 24.3702 23.892 21.6562 26.606L23.0723 28.02V28.02Z" fill="black"/>
<path d="M20.2421 25.192C21.4511 23.9862 22.4099 22.5534 23.0634 20.976C23.7169 19.3985 24.0522 17.7075 24.0501 16C24.0522 14.2925 23.7169 12.6015 23.0634 11.024C22.4099 9.44653 21.4511 8.01375 20.2421 6.80798L18.8281 8.22198C19.8511 9.24227 20.6623 10.4547 21.2153 11.7895C21.7682 13.1243 22.0519 14.5552 22.0501 16C22.0525 17.445 21.7692 18.8762 21.2166 20.2113C20.664 21.5465 19.853 22.7593 18.8301 23.78L20.2421 25.192Z" fill="black"/>
<path d="M20.05 15.9999C20.0515 17.182 19.8195 18.3528 19.3671 19.445C18.9147 20.5371 18.251 21.5291 17.414 22.3639L16 20.9499C16.651 20.3006 17.1672 19.529 17.519 18.6795C17.8708 17.83 18.0513 16.9194 18.05 15.9999C18.05 14.0679 17.266 12.3179 16 11.0499L17.414 9.63592C18.251 10.4707 18.9147 11.4627 19.3671 12.5549C19.8195 13.647 20.0515 14.8178 20.05 15.9999V15.9999ZM14 7.99992C13.9997 7.81175 13.9464 7.62747 13.8461 7.46827C13.7458 7.30906 13.6026 7.18139 13.4329 7.09992C13.2633 7.01846 13.0742 6.9865 12.8872 7.00773C12.7002 7.02895 12.523 7.1025 12.376 7.21992L7.65 10.9999H3C2.73478 10.9999 2.48043 11.1053 2.29289 11.2928C2.10536 11.4803 2 11.7347 2 11.9999V19.9999C2 20.2651 2.10536 20.5195 2.29289 20.707C2.48043 20.8946 2.73478 20.9999 3 20.9999H7.65L12.376 24.7799C12.523 24.8973 12.7002 24.9709 12.8872 24.9921C13.0742 25.0133 13.2633 24.9814 13.4329 24.8999C13.6026 24.8184 13.7458 24.6908 13.8461 24.5316C13.9464 24.3724 13.9997 24.1881 14 23.9999V7.99992ZM8.624 12.7799L12 10.0799V21.9199L8.624 19.2199C8.44699 19.0779 8.22694 19.0003 8 18.9999H4V12.9999H8C8.22694 12.9995 8.44699 12.9219 8.624 12.7799V12.7799Z" fill="black"/>
</svg>
