<svg width="32" height="32" viewBox="0 0 32 32" fill="none" xmlns="http://www.w3.org/2000/svg">
<path d="M13.434 7.09999C13.6034 7.18161 13.7464 7.30935 13.8465 7.46854C13.9466 7.62774 13.9998 7.81194 14 7.99999V24C13.9997 24.1882 13.9464 24.3724 13.8461 24.5316C13.7458 24.6908 13.6026 24.8185 13.4329 24.9C13.2633 24.9815 13.0742 25.0134 12.8872 24.9922C12.7002 24.971 12.523 24.8974 12.376 24.78L7.65 21H3C2.73478 21 2.48043 20.8946 2.29289 20.7071C2.10536 20.5196 2 20.2652 2 20V12C2 11.7348 2.10536 11.4804 2.29289 11.2929C2.48043 11.1054 2.73478 11 3 11H7.65L12.376 7.21999C12.5231 7.10237 12.7005 7.0287 12.8877 7.00747C13.0749 6.98624 13.2642 7.01831 13.434 7.09999V7.09999ZM12 10.08L8.624 12.78C8.44699 12.922 8.22694 12.9996 8 13H4V19H8C8.22694 19.0004 8.44699 19.078 8.624 19.22L12 21.92V10.08ZM27.708 11.292C27.8011 11.3849 27.875 11.4952 27.9254 11.6167C27.9758 11.7382 28.0018 11.8685 28.0018 12C28.0018 12.1315 27.9758 12.2618 27.9254 12.3833C27.875 12.5048 27.8011 12.6151 27.708 12.708L24.414 16L27.708 19.292C27.8958 19.4798 28.0013 19.7344 28.0013 20C28.0013 20.2655 27.8958 20.5202 27.708 20.708C27.5202 20.8958 27.2656 21.0013 27 21.0013C26.7344 21.0013 26.4798 20.8958 26.292 20.708L23 17.414L19.708 20.708C19.5202 20.8958 19.2656 21.0013 19 21.0013C18.7344 21.0013 18.4798 20.8958 18.292 20.708C18.1042 20.5202 17.9987 20.2655 17.9987 20C17.9987 19.7344 18.1042 19.4798 18.292 19.292L21.586 16L18.292 12.708C18.199 12.615 18.1253 12.5046 18.075 12.3832C18.0246 12.2617 17.9987 12.1315 17.9987 12C17.9987 11.8685 18.0246 11.7383 18.075 11.6168C18.1253 11.4953 18.199 11.385 18.292 11.292C18.4798 11.1042 18.7344 10.9987 19 10.9987C19.1315 10.9987 19.2617 11.0246 19.3832 11.0749C19.5046 11.1253 19.615 11.199 19.708 11.292L23 14.586L26.292 11.292C26.3849 11.1989 26.4952 11.125 26.6167 11.0746C26.7382 11.0242 26.8685 10.9982 27 10.9982C27.1315 10.9982 27.2618 11.0242 27.3833 11.0746C27.5048 11.125 27.6151 11.1989 27.708 11.292V11.292Z" fill="black"/>
</svg>
