<svg width="32" height="32" viewBox="0 0 32 32" fill="none" xmlns="http://www.w3.org/2000/svg">
<path d="M18 8.00004C17.9997 7.81187 17.9464 7.6276 17.8461 7.46839C17.7458 7.30919 17.6026 7.18151 17.4329 7.10005C17.2633 7.01858 17.0742 6.98662 16.8872 7.00785C16.7002 7.02907 16.523 7.10262 16.376 7.22004L11.65 11H7C6.73478 11 6.48043 11.1054 6.29289 11.2929C6.10536 11.4805 6 11.7348 6 12V20C6 20.2653 6.10536 20.5196 6.29289 20.7071C6.48043 20.8947 6.73478 21 7 21H11.65L16.376 24.78C16.523 24.8975 16.7002 24.971 16.8872 24.9922C17.0742 25.0135 17.2633 24.9815 17.4329 24.9C17.6026 24.8186 17.7458 24.6909 17.8461 24.5317C17.9464 24.3725 17.9997 24.1882 18 24V8.00004ZM12.624 12.78L16 10.08V21.92L12.624 19.22C12.447 19.078 12.2269 19.0004 12 19H8V13H12C12.2269 12.9996 12.447 12.9221 12.624 12.78V12.78ZM24.05 16C24.0515 17.1822 23.8195 18.3529 23.3671 19.4451C22.9147 20.5372 22.251 21.5292 21.414 22.364L20 20.95C20.651 20.3007 21.1672 19.5291 21.519 18.6796C21.8708 17.8301 22.0513 16.9195 22.05 16C22.0512 15.0806 21.8707 14.17 21.5188 13.3205C21.167 12.471 20.6509 11.6994 20 11.05L21.414 9.63604C22.251 10.4709 22.9147 11.4628 23.3671 12.555C23.8195 13.6471 24.0515 14.8179 24.05 16V16Z" fill="black"/>
</svg>
