<svg width="32" height="32" viewBox="0 0 32 32" fill="none" xmlns="http://www.w3.org/2000/svg">
<path d="M8.57465 4.95935C8.66798 4.87935 8.76131 4.79935 8.82798 4.74602C10.908 3.39935 13.3346 2.66602 16.0013 2.66602C18.508 2.66602 20.8546 3.33268 22.8546 4.55935C23.0013 4.66602 23.388 4.91935 23.6013 5.17268C21.668 3.03935 16.0013 7.59935 16.0013 7.59935C14.0013 6.09268 12.228 5.06602 10.8813 4.66602C9.74798 4.38602 8.97465 4.66602 8.61465 4.93268M25.788 6.94602C25.7213 6.87935 25.6546 6.81268 25.6013 6.74602C25.1213 6.21268 24.508 6.07935 24.0013 6.11935C23.4813 6.27935 21.2013 7.09268 18.4013 9.74602C18.4013 9.74602 21.5613 12.8127 23.4946 15.946C25.428 19.0793 26.5746 21.546 25.868 24.9727C28.0013 22.5993 29.3346 19.4527 29.3346 15.9993C29.3346 12.506 28.0013 9.33268 25.788 6.94602ZM20.9746 17.2793C20.108 16.3193 18.8413 14.946 17.148 13.266C16.788 12.906 16.4013 12.5327 16.0013 12.1327C16.0013 12.1327 15.3746 12.746 14.5746 13.5593C13.548 14.586 12.228 15.9327 11.4813 16.7193C10.1746 18.1193 6.41465 22.5193 6.20131 24.986C6.20131 24.986 5.33465 23.0394 7.20131 18.5193C8.40131 15.5727 12.0013 11.146 13.5346 9.70602C13.5346 9.70602 12.1613 8.18602 10.428 7.13268L10.3613 7.09268C9.52131 6.59935 8.61465 6.21268 7.73465 6.15935C6.84131 6.22602 6.28131 6.87935 6.28131 6.87935C3.95636 9.34634 2.66352 12.6095 2.66798 15.9993C2.66798 19.5356 4.07274 22.927 6.57322 25.4274C7.81134 26.6656 9.28119 27.6477 10.8989 28.3177C12.5165 28.9878 14.2504 29.3327 16.0013 29.3327C19.908 29.3327 23.428 27.6527 25.868 24.9727C25.868 24.9727 25.588 23.1993 23.788 20.666C23.3746 20.0927 21.828 18.2527 20.9746 17.2793Z" fill="black"/>
</svg>
