<svg width="22" height="24" viewBox="0 0 22 24" fill="none" xmlns="http://www.w3.org/2000/svg">
<g clip-path="url(#clip0_614_2)">
<path d="M20.3195 11.7854C20.3195 10.555 19.322 9.55756 18.0916 9.55756C18.0124 9.55756 17.9344 9.5618 17.8574 9.56994L20.9173 0.544922H7.91357L10.9693 9.56205C10.9242 9.55921 10.879 9.55774 10.8339 9.55764C9.6035 9.55764 8.60601 10.555 8.60601 11.7855C8.60601 12.78 9.25783 13.622 10.1574 13.9085C9.68228 14.7315 9.0844 15.4728 8.40562 16.1132C7.48259 16.9839 6.42625 17.6442 5.28375 18.051C3.92347 17.3522 3.28115 15.7982 3.86071 14.4356C3.92618 14.2817 3.99301 14.1257 4.05687 13.9704C5.04231 13.7404 5.77673 12.857 5.77673 11.8014C5.77673 10.571 4.77924 9.57359 3.5488 9.57359C2.31835 9.57359 1.32095 10.571 1.32095 11.8014C1.32095 12.5559 1.6963 13.2224 2.27018 13.6254C1.71878 14.8809 0.908204 16.1949 0.655653 17.7177C0.352982 19.5427 0.654636 21.48 2.23312 22.5741C5.90928 25.122 9.89972 20.9946 14.1071 19.957C15.6319 19.5811 17.3057 19.6416 18.6491 18.8636C19.658 18.2793 20.3231 17.3109 20.5118 16.2238C20.6984 15.1498 20.4265 14.0805 19.8013 13.2134C20.1367 12.8132 20.3202 12.3076 20.3195 11.7854Z" fill="#99425B"/>
<path d="M19.9756 16.1299C19.8117 17.0738 19.2288 17.8981 18.3763 18.392C17.5816 18.8522 16.6293 18.9896 15.621 19.135C15.0808 19.2128 14.5223 19.2935 13.9767 19.428C12.534 19.7837 11.1365 20.4779 9.78524 21.1491C7.08079 22.4924 4.74524 23.6524 2.54301 22.1261C0.929836 21.0081 1.0043 18.9395 1.19223 17.806C1.36642 16.7557 1.83734 15.7885 2.29266 14.8532C2.37024 14.6942 2.44718 14.535 2.5235 14.3754C2.75303 14.4672 2.99386 14.5276 3.23952 14.555C2.77597 16.0848 3.50496 17.7482 5.03494 18.5342L5.24441 18.6418L5.46609 18.5629C6.67567 18.132 7.79027 17.4409 8.77885 16.5081C9.41786 15.9052 9.96732 15.2382 10.4189 14.5255C10.5562 14.5462 10.6949 14.5566 10.8337 14.5566C12.238 14.5566 13.4008 13.5068 13.5808 12.151C14.1556 12.1299 14.7661 12.1298 15.3443 12.1508C15.524 13.5068 16.6871 14.5567 18.0914 14.5567C18.6786 14.5567 19.2232 14.3727 19.6719 14.0601C19.9834 14.6978 20.0996 15.4152 19.9756 16.1299ZM3.54872 10.1169C4.47717 10.1169 5.23245 10.8723 5.23245 11.8007C5.23271 12.1221 5.14041 12.4367 4.96659 12.707C4.68673 13.1435 4.21097 13.4427 3.66439 13.48C3.62615 13.4826 3.58756 13.4844 3.54872 13.4844C3.34179 13.4844 3.1436 13.4467 2.96034 13.3782C2.59125 13.2394 2.28217 12.9761 2.08642 12.6338C1.94106 12.3802 1.86468 12.093 1.8649 11.8007C1.8649 10.8723 2.62027 10.1169 3.54872 10.1169ZM9.15005 11.7847C9.15005 10.9411 9.77362 10.2407 10.5839 10.1196C10.6654 10.1073 10.7489 10.1009 10.8338 10.1009C11.3736 10.1009 11.8542 10.3566 12.1623 10.7528C12.2395 10.8516 12.3055 10.9587 12.3589 11.0721C12.4636 11.2951 12.5177 11.5384 12.5175 11.7847C12.5175 11.9193 12.5012 12.0501 12.4713 12.1756C12.3072 12.8626 11.7214 13.3877 11.0036 13.4599C10.9478 13.4655 10.8912 13.4684 10.8338 13.4684C10.5099 13.4687 10.1929 13.375 9.92127 13.1986C9.45772 12.8983 9.15005 12.3769 9.15005 11.7847ZM16.1775 9.78242C15.8111 10.1322 15.5474 10.5755 15.415 11.0644C14.7803 11.041 14.1451 11.041 13.5104 11.0644C13.3679 10.5359 13.0726 10.0697 12.6753 9.7155L14.4177 6.19251L16.1775 9.78242ZM8.67234 1.0884H20.1582L17.4453 9.08939C17.3286 9.11734 17.2138 9.15289 17.1018 9.19582L14.4219 3.72899L11.7344 9.16317C11.6173 9.12295 11.4975 9.09068 11.376 9.06657L8.67234 1.0884ZM19.7751 11.7848C19.7751 11.9535 19.7499 12.1165 19.7035 12.2704C19.5935 12.6328 19.3649 12.9477 19.0545 13.1647C18.7724 13.3627 18.436 13.4688 18.0914 13.4685C17.3139 13.4685 16.6581 12.9387 16.4653 12.2213C16.427 12.0789 16.4076 11.9322 16.4076 11.7848C16.4076 11.5546 16.4541 11.3351 16.5381 11.1352C16.5814 11.0328 16.6347 10.9351 16.6973 10.8433C17.0003 10.396 17.5116 10.101 18.0914 10.101C18.1445 10.101 18.1969 10.1037 18.2489 10.1087C19.1038 10.1883 19.7751 10.9094 19.7751 11.7848ZM20.8634 11.7848C20.8634 10.4314 19.8883 9.30225 18.604 9.06106L21.6762 0H7.15449L10.2314 9.07938C8.99172 9.35525 8.06182 10.4631 8.06182 11.7847C8.06182 12.7771 8.58626 13.6487 9.37224 14.1385C8.99418 14.7018 8.54589 15.2319 8.03214 15.7166C7.21733 16.4852 6.30965 17.0682 5.33108 17.4517C4.34538 16.8326 3.92873 15.6649 4.36141 14.6477L4.39533 14.568L4.45894 14.4184C5.54157 14.0408 6.32068 13.0104 6.32068 11.8007C6.32068 10.2722 5.07717 9.02866 3.54872 9.02866C2.02018 9.02866 0.776677 10.2722 0.776677 11.8007C0.776677 12.5722 1.09385 13.2708 1.60421 13.7739C1.50902 13.9756 1.4124 14.1765 1.31435 14.3768C0.84766 15.3352 0.318812 16.4215 0.118755 17.6279C-0.278474 20.0236 0.362317 21.9388 1.92317 23.0205C2.87027 23.6769 3.83214 23.935 4.80003 23.935C6.6225 23.935 8.46618 23.0194 10.2694 22.1237C11.568 21.4787 12.9109 20.8117 14.2374 20.4846C14.7309 20.3629 15.2388 20.2896 15.7764 20.2121C16.8427 20.0582 17.9452 19.8992 18.9218 19.3337C20.0539 18.6779 20.8287 17.578 21.0479 16.3161C21.236 15.2327 21.0096 14.1476 20.4575 13.2273C20.7235 12.7932 20.8641 12.2938 20.8635 11.7847L20.8634 11.7848Z" fill="white"/>
</g>
<defs>
<clipPath id="clip0_614_2">
<rect width="21.72" height="24" fill="white"/>
</clipPath>
</defs>
</svg>
