<svg width="24" height="24" viewBox="0 0 24 24" fill="none" xmlns="http://www.w3.org/2000/svg">
<path d="M8.34578 3.41992H15.2422C15.3319 3.41992 15.4178 3.45553 15.4812 3.51891C15.5446 3.58229 15.5802 3.66826 15.5802 3.75789C15.5802 3.84753 15.5446 3.93349 15.4812 3.99687C15.4178 4.06025 15.3319 4.09586 15.2422 4.09586H8.34578C8.25615 4.09586 8.17018 4.06025 8.1068 3.99687C8.04342 3.93349 8.00781 3.84753 8.00781 3.75789C8.00781 3.66826 8.04342 3.58229 8.1068 3.51891C8.17018 3.45553 8.25615 3.41992 8.34578 3.41992Z" fill="#696969"/>
<path d="M8.40625 2.73633H9.79281V3.05564H8.40625V2.73633Z" fill="#009FE3"/>
<path d="M10.2188 2.73633H11.6053V3.05564H10.2188V2.73633Z" fill="#C7D302"/>
<path d="M12.0078 2.73633H13.3942V3.05564H12.0078V2.73633Z" fill="#F07E16"/>
<path d="M13.7891 2.73633H15.1754V3.05564H13.7891V2.73633ZM13.7891 4.44802H15.1754V6.79177H13.7891V4.44802Z" fill="#DF2815"/>
<path d="M12.0078 4.44727H13.3972V8.25483H12.0078V4.44727Z" fill="#F07E16"/>
<path d="M10.2188 4.44727H11.6053V10.1514H10.2188V4.44727Z" fill="#C7D302"/>
<path d="M8.40625 4.44727H9.79281V11.3992H8.40625V4.44727Z" fill="#009FE3"/>
<path d="M4.04847 18.7809C3.91159 18.7809 3.78784 18.7656 3.67647 18.7356C3.57178 18.7084 3.47088 18.6682 3.37609 18.6161C3.2896 18.5686 3.20999 18.5095 3.13947 18.4404C3.0724 18.3753 3.01139 18.3042 2.95722 18.228H2.91541C2.92197 18.3071 2.92928 18.3825 2.93603 18.4543C2.94034 18.5143 2.94541 18.5766 2.94991 18.6403C2.95422 18.7041 2.95722 18.7547 2.95722 18.7913V20.4223H2.32422V14.8941H2.83834L2.92909 15.4089H2.95703C3.00953 15.3276 3.07047 15.2522 3.13703 15.1811C3.20666 15.1092 3.28576 15.047 3.37216 14.9964C3.46649 14.9421 3.56745 14.9003 3.67253 14.8719C3.795 14.8389 3.92144 14.8228 4.04828 14.8243C4.26578 14.8243 4.46434 14.8661 4.64303 14.9496C4.82097 15.0332 4.97341 15.1577 5.09997 15.324C5.22597 15.4894 5.32422 15.6952 5.39378 15.9407C5.46316 16.1867 5.49766 16.4717 5.49766 16.7961C5.49766 17.1227 5.46334 17.4099 5.39378 17.6567C5.32422 17.9034 5.22597 18.1101 5.09997 18.2771C4.98043 18.438 4.82363 18.5673 4.64303 18.6542C4.46434 18.7386 4.26578 18.7809 4.04828 18.7809H4.04847ZM3.92697 15.3497C3.75034 15.3497 3.60166 15.3759 3.48016 15.4294C3.36053 15.4811 3.25796 15.5656 3.18428 15.6731C3.10947 15.7817 3.05378 15.9173 3.01797 16.0798C2.98197 16.2416 2.96172 16.4329 2.95722 16.6532V16.7961C2.95722 17.0297 2.97259 17.2378 3.00409 17.4201C3.03484 17.6017 3.08828 17.7547 3.16366 17.8787C3.2352 17.9993 3.33966 18.0971 3.46478 18.1605C3.58928 18.2243 3.74603 18.2557 3.93353 18.2557C4.24703 18.2557 4.47691 18.1298 4.62409 17.877C4.77128 17.6244 4.84459 17.262 4.84459 16.7888C4.84459 16.3069 4.77147 15.9465 4.62409 15.7076C4.47691 15.4689 4.24403 15.3497 3.92697 15.3497ZM5.92572 14.8946H6.58272L7.33047 17.0261C7.36272 17.1191 7.39553 17.2164 7.42928 17.3182C7.46303 17.4201 7.49453 17.5219 7.52303 17.6239C7.55228 17.7262 7.57741 17.8245 7.59784 17.9196C7.61903 18.0148 7.63366 18.1028 7.64322 18.1839H7.66384C7.67547 18.1262 7.69441 18.0471 7.71934 17.9475C7.74503 17.8479 7.77372 17.7416 7.80503 17.6295C7.83578 17.5168 7.86878 17.4062 7.90253 17.2971C7.93534 17.1887 7.96553 17.0957 7.99103 17.0196L8.68253 14.8948H9.33653L7.82772 19.2094C7.76266 19.3969 7.69234 19.5654 7.61678 19.7156C7.54897 19.8547 7.46061 19.9829 7.35466 20.0957C7.25583 20.1998 7.13634 20.2821 7.00384 20.3374C6.86884 20.3946 6.70947 20.4231 6.52403 20.4231C6.41919 20.4241 6.31441 20.4174 6.21053 20.4032C6.13486 20.393 6.05962 20.3798 5.98497 20.3638V19.8598C6.03334 19.8709 6.09484 19.881 6.16872 19.8891C6.24353 19.8971 6.32116 19.9016 6.40178 19.9016C6.51297 19.9016 6.60991 19.8876 6.69034 19.8613C6.77153 19.8351 6.84259 19.7961 6.90278 19.7449C6.96278 19.6935 7.01472 19.6312 7.05728 19.5574C7.10041 19.4826 7.13922 19.3984 7.17353 19.3031L7.37228 18.7472L5.92572 14.8946Z" fill="#696969"/>
<path d="M11.1286 18.2638C11.1704 18.2638 11.2173 18.2617 11.2692 18.2572C11.365 18.2491 11.4601 18.2351 11.5542 18.2154C11.5953 18.206 11.626 18.198 11.6464 18.1914V18.671C11.6164 18.6849 11.5784 18.699 11.5321 18.7128C11.4253 18.7438 11.3157 18.7642 11.2049 18.7736C11.1449 18.7794 11.0854 18.7824 11.0275 18.7824C10.8923 18.7833 10.7576 18.7645 10.6277 18.7267C10.5074 18.6906 10.398 18.6249 10.3098 18.5355C10.2205 18.4447 10.1509 18.3225 10.0998 18.1685C10.0484 18.014 10.0234 17.82 10.0234 17.5863V15.3714H9.48438V15.0902L10.0234 14.8192L10.2944 14.0195H10.6593V14.8953H11.6187V15.3716H10.6593V17.5863C10.6593 17.8113 10.6958 17.9805 10.7691 18.0939C10.8415 18.2073 10.9617 18.2638 11.1286 18.2638ZM13.8957 18.7809C13.6407 18.7809 13.408 18.7383 13.1971 18.6521C12.9901 18.5689 12.8042 18.4408 12.6528 18.2771C12.5013 18.1121 12.3841 17.9087 12.3004 17.6647C12.217 17.4215 12.1752 17.1433 12.1752 16.8303C12.1752 16.5155 12.2134 16.2335 12.2896 15.986C12.3664 15.7378 12.4741 15.5276 12.6132 15.3547C12.7468 15.1864 12.9175 15.0513 13.1119 14.9598C13.3054 14.8698 13.5192 14.8245 13.7536 14.8245C13.9829 14.8245 14.1895 14.8661 14.3725 14.9482C14.5521 15.0275 14.7114 15.1464 14.8384 15.296C14.9659 15.4455 15.0632 15.6249 15.1321 15.8343C15.2001 16.0445 15.2346 16.2768 15.2346 16.5317V16.9243H12.8286C12.8402 17.3717 12.9347 17.7005 13.1121 17.9115C13.2893 18.1224 13.5529 18.228 13.903 18.228C14.0211 18.228 14.1308 18.2222 14.2311 18.2111C14.3324 18.1993 14.4297 18.1826 14.5234 18.1605C14.6172 18.1385 14.7079 18.1108 14.7966 18.077C14.8846 18.0433 14.9738 18.006 15.064 17.9643V18.5276C14.9718 18.5715 14.8802 18.6095 14.7916 18.6418C14.7021 18.674 14.6106 18.701 14.5169 18.7217C14.4205 18.743 14.3229 18.7581 14.2246 18.767C14.1235 18.7764 14.0146 18.7809 13.8957 18.7809ZM13.7397 15.3497C13.4753 15.3497 13.2659 15.4404 13.1121 15.6206C12.9584 15.8013 12.8682 16.0644 12.8425 16.41H14.5527C14.5527 16.2525 14.5373 16.1083 14.5058 15.9772C14.4751 15.846 14.4259 15.734 14.3601 15.6416C14.2955 15.5498 14.2089 15.4758 14.1081 15.4263C14.0063 15.3752 13.8831 15.3497 13.7397 15.3497ZM18.4816 17.6653C18.4816 17.8515 18.4478 18.0133 18.3803 18.1526C18.3136 18.291 18.214 18.4109 18.0902 18.5019C17.9637 18.5957 17.8112 18.666 17.6326 18.7119C17.4544 18.7582 17.2538 18.7817 17.0312 18.7817C16.7785 18.7817 16.5618 18.761 16.3816 18.7209C16.2006 18.6806 16.0418 18.6206 15.9048 18.5422V17.9649C15.9766 18.0017 16.0572 18.0382 16.1449 18.0742C16.3311 18.15 16.5252 18.2047 16.7236 18.2373C16.8251 18.2548 16.928 18.2637 17.0311 18.2638C17.1822 18.2638 17.3104 18.2507 17.4158 18.2257C17.5212 18.2 17.6071 18.1635 17.6727 18.1158C17.7387 18.0682 17.7871 18.0105 17.8171 17.9422C17.8479 17.8703 17.8634 17.7928 17.8626 17.7146C17.8626 17.6428 17.8508 17.5777 17.8274 17.5196C17.8047 17.4618 17.7621 17.4047 17.7006 17.3477C17.6391 17.2912 17.5549 17.2333 17.4486 17.1755C17.3149 17.1045 17.178 17.0395 17.0386 16.9805C16.8859 16.9157 16.7356 16.8451 16.5882 16.769C16.4654 16.7066 16.3513 16.6282 16.249 16.536C16.1582 16.4524 16.0855 16.3512 16.0353 16.2386C15.9854 16.1259 15.9604 15.9926 15.9604 15.8373C15.9604 15.6748 15.9927 15.5304 16.0564 15.4044C16.1195 15.2782 16.2119 15.169 16.3259 15.0858C16.4416 15.0002 16.5809 14.9358 16.7427 14.8918C16.9052 14.8472 17.0862 14.825 17.2853 14.825C17.5103 14.825 17.7153 14.85 17.9022 14.8983C18.0889 14.9475 18.2654 15.0112 18.4324 15.0896L18.2134 15.6007C18.0622 15.5332 17.9071 15.4745 17.749 15.425C17.5922 15.3754 17.4286 15.3502 17.2641 15.3502C17.0275 15.3502 16.8533 15.389 16.7391 15.4667C16.6255 15.5443 16.5691 15.6549 16.5691 15.7985C16.5691 15.8797 16.5822 15.9508 16.6086 16.011C16.6358 16.071 16.6812 16.1282 16.7463 16.1816C16.8115 16.2343 16.8979 16.2885 17.0071 16.3428C17.1162 16.3976 17.2517 16.4583 17.4136 16.5258C17.5804 16.5947 17.7293 16.6642 17.8604 16.734C17.9914 16.8033 18.1036 16.8817 18.1958 16.9689C18.2888 17.0552 18.3591 17.1549 18.4082 17.2663C18.4564 17.3769 18.4814 17.51 18.4814 17.6655L18.4816 17.6653ZM20.5645 18.2638C20.6061 18.2638 20.653 18.2617 20.7051 18.2572C20.7571 18.2529 20.8077 18.2469 20.8566 18.2396C20.905 18.233 20.9496 18.225 20.9899 18.2154C21.031 18.206 21.0617 18.198 21.0822 18.1914V18.671C21.0449 18.6877 21.0065 18.7017 20.9672 18.7128C20.9171 18.7275 20.8663 18.7397 20.815 18.7494C20.699 18.7705 20.5814 18.7816 20.4634 18.7824C20.3281 18.7833 20.1934 18.7646 20.0635 18.7267C19.9432 18.6906 19.8339 18.6248 19.7457 18.5355C19.6563 18.4447 19.5859 18.3225 19.5353 18.1685C19.4841 18.014 19.4584 17.82 19.4584 17.5863V15.3714H18.9203V15.0902L19.4584 14.8192L19.7303 14.0195H20.095V14.8953H21.0544V15.3716H20.095V17.5863C20.095 17.8113 20.1316 17.9805 20.2049 18.0939C20.2772 18.2073 20.3974 18.2638 20.5645 18.2638Z" fill="#009FE3"/>
</svg>
