<svg width="24" height="24" viewBox="0 0 24 24" fill="none" xmlns="http://www.w3.org/2000/svg">
<path d="M1.9819 2H22.0181C22.2785 2 22.5283 2.10536 22.7124 2.29289C22.8966 2.48043 23 2.73478 23 3C23 3.26522 22.8966 3.51957 22.7124 3.70711C22.5283 3.89464 22.2785 4 22.0181 4H1.9819C1.72148 4 1.47173 3.89464 1.28759 3.70711C1.10345 3.51957 1 3.26522 1 3C1 2.73478 1.10345 2.48043 1.28759 2.29289C1.47173 2.10536 1.72148 2 1.9819 2Z" fill="#696969"/>
<path d="M2.04688 0H6.23735V1H2.04688V0Z" fill="#009FE3"/>
<path d="M7.28516 0H11.4756V1H7.28516V0Z" fill="#C7D302"/>
<path d="M12.5234 0H16.7139V1H12.5234V0Z" fill="#F07E16"/>
<path d="M17.7617 0H21.9522V1H19.857H17.7617V0ZM17.7617 5H22L21.9522 11H17.7617V5Z" fill="#DF2815"/>
<path d="M12.5234 5H16.7139V15H12.5234V5Z" fill="#F07E16"/>
<path d="M7.28516 5H11.4756V21H7.28516V5Z" fill="#C7D302"/>
<path d="M2.04688 5H6.23735V24H2.04688V5Z" fill="#009FE3"/>
</svg>
