<svg width="24" height="24" viewBox="0 0 24 24" fill="none" xmlns="http://www.w3.org/2000/svg">
<path d="M12.3577 6.85343C11.2691 6.85343 10.205 7.17621 9.29994 7.78097C8.39485 8.38573 7.68943 9.2453 7.27286 10.251C6.8563 11.2567 6.7473 12.3633 6.95967 13.4309C7.17203 14.4985 7.69621 15.4792 8.46592 16.2489C9.23563 17.0186 10.2163 17.5428 11.2839 17.7552C12.3515 17.9675 13.4582 17.8585 14.4638 17.442C15.4695 17.0254 16.3291 16.32 16.9338 15.4149C17.5386 14.5098 17.8614 13.4457 17.8614 12.3572C17.8599 10.8979 17.2795 9.49893 16.2477 8.46711C15.2159 7.43529 13.8169 6.85494 12.3577 6.85343ZM12.3577 16.0263C11.632 16.0263 10.9226 15.8111 10.3192 15.408C9.71579 15.0048 9.2455 14.4317 8.96779 13.7613C8.69008 13.0908 8.61742 12.3531 8.759 11.6413C8.90057 10.9296 9.25003 10.2758 9.76317 9.76268C10.2763 9.24954 10.9301 8.90008 11.6418 8.75851C12.3536 8.61693 13.0913 8.68959 13.7618 8.9673C14.4322 9.24501 15.0053 9.7153 15.4085 10.3187C15.8116 10.9221 16.0268 11.6315 16.0268 12.3572C16.0268 13.3303 15.6402 14.2636 14.9521 14.9517C14.264 15.6398 13.3308 16.0263 12.3577 16.0263ZM22.4478 12.6048C22.4524 12.4397 22.4524 12.2746 22.4478 12.1095L24.1586 9.97221C24.2483 9.85999 24.3104 9.72828 24.3399 9.58767C24.3693 9.44706 24.3654 9.3015 24.3283 9.1627C24.0478 8.10851 23.6283 7.09634 23.0808 6.15285C23.0091 6.02938 22.9096 5.92435 22.7901 5.84612C22.6707 5.76789 22.5346 5.71861 22.3928 5.70223L19.673 5.39952C19.5599 5.28027 19.4453 5.16561 19.3291 5.05554L19.008 2.32889C18.9915 2.18695 18.9421 2.05084 18.8636 1.9314C18.7852 1.81195 18.6799 1.71249 18.5562 1.64092C17.6124 1.09439 16.6003 0.675286 15.5464 0.394556C15.4075 0.357631 15.2619 0.353855 15.1213 0.38353C14.9807 0.413206 14.849 0.475503 14.7369 0.565401L12.6053 2.26697H12.11L9.9727 0.559668C9.86048 0.469967 9.72877 0.407877 9.58816 0.378401C9.44755 0.348926 9.30199 0.352888 9.16319 0.389969C8.10917 0.67092 7.09706 1.09042 6.15333 1.63748C6.02986 1.70918 5.92483 1.8087 5.8466 1.92814C5.76837 2.04757 5.7191 2.18362 5.70271 2.32545L5.40001 5.0498C5.28076 5.1637 5.1661 5.27836 5.05602 5.39379L2.32938 5.70681C2.18744 5.72333 2.05133 5.77277 1.93188 5.8512C1.81244 5.92964 1.71297 6.03489 1.64141 6.15858C1.09488 7.10243 0.675774 8.11452 0.395044 9.16844C0.35812 9.30732 0.354343 9.45294 0.384019 9.59355C0.413694 9.73416 0.475992 9.86583 0.565889 9.97795L2.26746 12.1095V12.6048L0.560156 14.7421C0.470455 14.8543 0.408365 14.9861 0.37889 15.1267C0.349414 15.2673 0.353376 15.4128 0.390457 15.5516C0.670907 16.6058 1.09043 17.618 1.63797 18.5615C1.70967 18.685 1.80919 18.79 1.92863 18.8682C2.04806 18.9464 2.18411 18.9957 2.32594 19.0121L5.04571 19.3148C5.1596 19.4341 5.27426 19.5487 5.38969 19.6588L5.7073 22.3854C5.72381 22.5274 5.77326 22.6635 5.85169 22.7829C5.93013 22.9024 6.03538 23.0018 6.15907 23.0734C7.10292 23.6199 8.11501 24.039 9.16893 24.3198C9.30781 24.3567 9.45342 24.3605 9.59403 24.3308C9.73464 24.3011 9.86632 24.2388 9.97843 24.1489L12.11 22.4474C12.2751 22.4519 12.4402 22.4519 12.6053 22.4474L14.7426 24.1581C14.8548 24.2478 14.9865 24.3099 15.1272 24.3394C15.2678 24.3688 15.4133 24.3649 15.5521 24.3278C16.6063 24.0474 17.6185 23.6278 18.562 23.0803C18.6854 23.0086 18.7905 22.9091 18.8687 22.7896C18.9469 22.6702 18.9962 22.5342 19.0126 22.3923L19.3153 19.6726C19.4345 19.5594 19.5492 19.4448 19.6593 19.3286L22.3859 19.0075C22.5279 18.991 22.664 18.9416 22.7834 18.8631C22.9029 18.7847 23.0023 18.6794 23.0739 18.5558C23.6204 17.6119 24.0395 16.5998 24.3203 15.5459C24.3572 15.407 24.361 15.2614 24.3313 15.1208C24.3016 14.9802 24.2393 14.8485 24.1494 14.7364L22.4478 12.6048ZM20.6018 11.8595C20.6213 12.191 20.6213 12.5233 20.6018 12.8548C20.5881 13.0817 20.6592 13.3057 20.8013 13.4831L22.4284 15.5161C22.2417 16.1094 22.0026 16.685 21.714 17.236L19.1227 17.5295C18.897 17.5546 18.6886 17.6624 18.5379 17.8322C18.3172 18.0805 18.0821 18.3156 17.8339 18.5363C17.6641 18.687 17.5562 18.8954 17.5312 19.121L17.2434 21.7101C16.6924 21.9988 16.1168 22.2379 15.5235 22.4244L13.4894 20.7974C13.3266 20.6673 13.1244 20.5966 12.9161 20.5967H12.861C12.5296 20.6162 12.1972 20.6162 11.8658 20.5967C11.6388 20.5831 11.4149 20.6542 11.2374 20.7962L9.19874 22.4244C8.6054 22.2377 8.02983 21.9987 7.47882 21.7101L7.18528 19.1222C7.16023 18.8965 7.05238 18.6882 6.88258 18.5374C6.63435 18.3167 6.39927 18.0816 6.17856 17.8334C6.02782 17.6636 5.81946 17.5557 5.59379 17.5307L3.00473 17.2417C2.71601 16.6908 2.47695 16.1152 2.29039 15.5218L3.91744 13.4877C4.05951 13.3102 4.13061 13.0863 4.11695 12.8594C4.09746 12.5279 4.09746 12.1956 4.11695 11.8641C4.13061 11.6372 4.05951 11.4133 3.91744 11.2358L2.29039 9.19825C2.47709 8.60491 2.71615 8.02934 3.00473 7.47833L5.59264 7.1848C5.81831 7.15975 6.02667 7.05189 6.17741 6.88209C6.39812 6.63386 6.6332 6.39878 6.88143 6.17807C7.05191 6.02723 7.16021 5.81839 7.18528 5.59215L7.47308 3.00425C8.02404 2.71552 8.59962 2.47646 9.193 2.28991L11.2271 3.91695C11.4046 4.05902 11.6285 4.13012 11.8554 4.11646C12.1869 4.09697 12.5192 4.09697 12.8507 4.11646C13.0776 4.13012 13.3016 4.05902 13.479 3.91695L15.5166 2.28991C16.1099 2.4766 16.6855 2.71566 17.2365 3.00425L17.53 5.59215C17.5551 5.81782 17.6629 6.02618 17.8327 6.17692C18.081 6.39764 18.316 6.63271 18.5368 6.88094C18.6875 7.05074 18.8959 7.1586 19.1215 7.18365L21.7106 7.47145C21.9993 8.0224 22.2384 8.59798 22.4249 9.19137L20.7979 11.2255C20.6544 11.4044 20.5832 11.6307 20.5984 11.8595H20.6018Z" fill="black"/>
</svg>
