<svg width="24" height="24" viewBox="0 0 24 24" fill="none" xmlns="http://www.w3.org/2000/svg">
<path d="M9.87813 8.12813L7.37813 5.62812L10.5781 2.42812C10.7781 2.22812 11.0031 2.07812 11.2531 1.97812C11.5031 1.87812 11.7531 1.82812 12.0031 1.82812C12.2531 1.82812 12.5031 1.87812 12.7531 1.97812C13.0031 2.07812 13.2281 2.22812 13.4281 2.42812L16.6281 5.62812L14.1281 8.12813L12.0031 6.00313L9.87813 8.12813ZM5.62812 16.6281L2.42812 13.4281C2.22812 13.2281 2.07812 13.0031 1.97812 12.7531C1.87812 12.5031 1.82812 12.2531 1.82812 12.0031C1.82812 11.7531 1.87812 11.5031 1.97812 11.2531C2.07812 11.0031 2.22812 10.7781 2.42812 10.5781L5.62812 7.37813L8.12813 9.87813L6.00313 12.0031L8.12813 14.1281L5.62812 16.6281ZM18.3781 16.6281L15.8781 14.1281L18.0031 12.0031L15.8781 9.87813L18.3781 7.37813L21.5781 10.5781C21.7781 10.7781 21.9281 11.0031 22.0281 11.2531C22.1281 11.5031 22.1781 11.7531 22.1781 12.0031C22.1781 12.2531 22.1281 12.5031 22.0281 12.7531C21.9281 13.0031 21.7781 13.2281 21.5781 13.4281L18.3781 16.6281ZM12.0031 22.1781C11.7531 22.1781 11.5031 22.1281 11.2531 22.0281C11.0031 21.9281 10.7781 21.7781 10.5781 21.5781L7.37813 18.3781L9.87813 15.8781L12.0031 18.0031L14.1281 15.8781L16.6281 18.3781L13.4281 21.5781C13.2281 21.7781 13.0031 21.9281 12.7531 22.0281C12.5031 22.1281 12.2531 22.1781 12.0031 22.1781ZM13.4281 12.0031C13.4281 12.3865 13.2865 12.7198 13.0031 13.0031C12.7198 13.2865 12.3865 13.4281 12.0031 13.4281C11.6198 13.4281 11.2865 13.2865 11.0031 13.0031C10.7198 12.7198 10.5781 12.3865 10.5781 12.0031C10.5781 11.6198 10.7198 11.2865 11.0031 11.0031C11.2865 10.7198 11.6198 10.5781 12.0031 10.5781C12.3865 10.5781 12.7198 10.7198 13.0031 11.0031C13.2865 11.2865 13.4281 11.6198 13.4281 12.0031Z" fill="black"/>
</svg>
