<svg width="24" height="24" viewBox="0 0 24 24" fill="none" xmlns="http://www.w3.org/2000/svg">
<path d="M22.69 18.37L23.83 17.37L22.83 15.64L21.38 16.13C21.0589 15.8594 20.6936 15.6463 20.3 15.5L20 14H18L17.7 15.49C17.3064 15.6362 16.941 15.8494 16.62 16.12L15.17 15.63L14.17 17.36L15.31 18.36C15.23 18.7762 15.23 19.2038 15.31 19.62L14.17 20.62L15.17 22.35L16.62 21.86C16.941 22.1306 17.3064 22.3438 17.7 22.49L18 24H20L20.3 22.51C20.6936 22.3638 21.059 22.1506 21.38 21.88L22.83 22.37L23.83 20.64L22.69 19.64C22.77 19.2204 22.77 18.7896 22.69 18.37ZM19 21C18.6044 21 18.2178 20.8827 17.8889 20.6629C17.56 20.4432 17.3036 20.1308 17.1522 19.7654C17.0009 19.3999 16.9613 18.9978 17.0384 18.6098C17.1156 18.2219 17.3061 17.8655 17.5858 17.5858C17.8655 17.3061 18.2219 17.1156 18.6098 17.0384C18.9978 16.9613 19.3999 17.0009 19.7654 17.1522C20.1308 17.3036 20.4432 17.56 20.6629 17.8889C20.8827 18.2178 21 18.6044 21 19C20.9984 19.5299 20.7872 20.0377 20.4125 20.4125C20.0377 20.7872 19.5299 20.9984 19 21ZM23 11H1V1H23V11ZM3 9H21V3H3V9ZM13 5H4V7H13V5ZM16 5C15.8022 5 15.6089 5.05865 15.4444 5.16853C15.28 5.27841 15.1518 5.43459 15.0761 5.61732C15.0004 5.80004 14.9806 6.00111 15.0192 6.19509C15.0578 6.38907 15.153 6.56725 15.2929 6.70711C15.4327 6.84696 15.6109 6.9422 15.8049 6.98079C15.9989 7.01937 16.2 6.99957 16.3827 6.92388C16.5654 6.84819 16.7216 6.72002 16.8315 6.55557C16.9414 6.39112 17 6.19778 17 6C17 5.73478 16.8946 5.48043 16.7071 5.29289C16.5196 5.10536 16.2652 5 16 5ZM19 5C18.8022 5 18.6089 5.05865 18.4444 5.16853C18.28 5.27841 18.1518 5.43459 18.0761 5.61732C18.0004 5.80004 17.9806 6.00111 18.0192 6.19509C18.0578 6.38907 18.153 6.56725 18.2929 6.70711C18.4327 6.84696 18.6109 6.9422 18.8049 6.98079C18.9989 7.01937 19.2 6.99957 19.3827 6.92388C19.5654 6.84819 19.7216 6.72002 19.8315 6.55557C19.9414 6.39112 20 6.19778 20 6C20 5.73478 19.8946 5.48043 19.7071 5.29289C19.5196 5.10536 19.2652 5 19 5Z" fill="black"/>
<path d="M12.294 21H3V15H13.26C13.8272 14.1896 14.5592 13.508 15.408 13H1V23H13.26C12.833 22.3893 12.5069 21.7141 12.294 21Z" fill="black"/>
<path d="M4 19H12C12.0006 18.3226 12.0997 17.6489 12.294 17H4V19Z" fill="black"/>
</svg>
