<svg width="20" height="20" viewBox="0 0 20 20" fill="none" xmlns="http://www.w3.org/2000/svg">
<path d="M14.2067 16.9C13.39 17.6917 12.4983 17.5667 11.64 17.1917C10.7317 16.8083 9.89835 16.7917 8.94001 17.1917C7.74001 17.7083 7.10668 17.5583 6.39001 16.9C2.32335 12.7083 2.92335 6.325 7.54001 6.09167C8.66501 6.15 9.44835 6.70833 10.1067 6.75833C11.09 6.55833 12.0317 5.98333 13.0817 6.05833C14.34 6.15833 15.29 6.65833 15.915 7.55833C13.315 9.11667 13.9317 12.5417 16.315 13.5C15.84 14.75 15.2233 15.9917 14.1983 16.9083L14.2067 16.9ZM10.0233 6.04167C9.89835 4.18333 11.4067 2.65 13.14 2.5C13.3817 4.65 11.19 6.25 10.0233 6.04167Z" fill="#A3AAAE"/>
</svg>
